<?xml version="1.0" encoding="UTF-8" standalone="no"?>
<svg
   xmlns:dc="http://purl.org/dc/elements/1.1/"
   xmlns:cc="http://creativecommons.org/ns#"
   xmlns:rdf="http://www.w3.org/1999/02/22-rdf-syntax-ns#"
   xmlns:svg="http://www.w3.org/2000/svg"
   xmlns="http://www.w3.org/2000/svg"
   width="300"
   height="200"
   viewBox="0 0 300 200">
  <metadata
     id="metadata3559">
    <rdf:RDF>
      <cc:Work
         rdf:about="">
        <dc:format>image/svg+xml</dc:format>
        <dc:type
           rdf:resource="http://purl.org/dc/dcmitype/StillImage" />
      </cc:Work>
    </rdf:RDF>
  </metadata>
  <path
     id="path3560"
     style="display:inline;fill:#d00000;fill-opacity:1;fill-rule:evenodd"
     d="M 88.126953 14.705078 L 88.126953 28.605469 L 88.126953 42.505859 L 92.191406 42.505859 L 96.257812 42.505859 L 96.257812 37.345703 L 96.257812 32.185547 L 99.990234 32.185547 L 103.72461 32.185547 L 103.72461 29.271484 L 103.72461 26.359375 L 99.990234 26.359375 L 96.257812 26.359375 L 96.257812 23.363281 L 96.257812 20.365234 L 100.57227 20.365234 C 104.56804 20.365234 104.88629 20.344058 104.89258 20.074219 C 104.89656 19.913987 105.07262 18.64039 105.2832 17.244141 L 105.66602 14.705078 L 96.896484 14.705078 L 88.126953 14.705078 z M 141.58203 20.369141 C 139.38233 20.376304 137.92156 20.911151 136.30469 22.296875 L 135.44141 23.037109 L 135.33398 22.242188 C 135.2757 21.805259 135.20678 21.372805 135.17969 21.28125 C 135.14821 21.1751 133.8588 21.13343 131.62305 21.164062 L 128.11719 21.210938 L 128.11719 36.353516 L 128.11719 51.496094 L 128.49023 51.484375 C 128.6956 51.478206 130.46939 51.309838 132.43164 51.109375 L 136 50.744141 L 136.04492 46.037109 L 136.08789 41.330078 L 136.70703 41.826172 C 138.74702 43.464185 141.71132 43.694908 144.32227 42.417969 C 146.77874 41.2166 148.54239 38.420641 149.20117 34.681641 C 149.50242 32.972055 149.41615 29.20498 149.0332 27.357422 C 148.69273 25.71482 147.72468 23.510059 146.97461 22.669922 C 145.63734 21.172056 143.74014 20.362224 141.58203 20.369141 z M 185.32422 20.373047 C 184.28359 20.387603 183.25502 20.496101 182.47852 20.695312 C 177.68379 21.925493 174.92325 25.955937 174.91602 31.734375 C 174.91303 34.180324 175.2396 35.838923 176.08398 37.652344 C 178.16967 42.131501 183.62311 44.222176 189.59961 42.835938 C 191.23383 42.456888 192.57311 41.872492 194.03516 40.898438 L 195.1543 40.152344 L 194.21484 38.875 C 192.35703 36.346982 191.95413 35.836164 191.85547 35.882812 C 191.80028 35.908821 191.04673 36.288277 190.17969 36.724609 C 188.37081 37.634927 187.19323 37.840119 185.64453 37.517578 C 184.15466 37.207311 183.2524 36.241484 182.95703 34.640625 L 182.8418 34.015625 L 189.33203 34.015625 L 195.82227 34.015625 L 195.82227 31.867188 C 195.82227 27.637459 194.89813 25.029025 192.62305 22.835938 C 191.63562 21.884097 189.77299 20.936977 188.25 20.613281 C 187.41848 20.436549 186.36485 20.358491 185.32422 20.373047 z M 165.76758 20.404297 C 163.36431 20.29043 161.69293 20.872576 160.04492 22.396484 L 159.34375 23.044922 L 159.24609 22.537109 C 159.1922 22.258317 159.11037 21.824055 159.0625 21.572266 L 158.97461 21.115234 L 155.49414 21.115234 L 152.01367 21.115234 L 152.01367 36.328125 L 152.01367 51.541016 L 152.80273 51.451172 C 153.23623 51.400826 154.98992 51.224236 156.70117 51.060547 L 159.8125 50.763672 L 159.8125 46.052734 C 159.8125 43.461514 159.85514 41.341797 159.90625 41.341797 C 159.95746 41.341797 160.27444 41.561539 160.61133 41.832031 C 162.59354 43.423551 165.52694 43.692177 168.05469 42.513672 C 170.16923 41.527825 172.04529 38.894724 172.86523 35.763672 C 173.33655 33.963996 173.28684 28.623615 172.78125 26.775391 C 172.20687 24.676214 171.56173 23.464878 170.39453 22.294922 C 169.04323 20.940429 167.98912 20.509546 165.76758 20.404297 z M 114.95312 20.40625 C 112.70219 20.493978 111.19563 20.926221 109.61523 21.941406 C 108.40488 22.718898 106.98359 24.3496 106.30664 25.734375 C 105.32839 27.735535 105.00562 29.254648 105.00977 31.851562 C 105.01475 34.395856 105.33945 35.988906 106.23242 37.820312 C 106.8595 39.106424 108.58923 40.99033 109.75781 41.660156 C 112.46565 43.212288 116.41523 43.668173 119.82031 42.820312 C 121.23172 42.468877 123.77007 41.266631 124.62109 40.546875 L 125.19141 40.064453 L 123.73047 38.080078 C 122.92688 36.989022 122.21606 36.039386 122.15234 35.96875 C 122.08868 35.898067 121.29677 36.222025 120.39062 36.6875 C 119.01608 37.393589 118.54862 37.548333 117.57227 37.626953 C 115.03238 37.831465 113.4151 36.776375 113.08398 34.699219 L 112.97461 34.015625 L 119.37695 34.015625 L 125.7793 34.015625 L 125.89258 33.408203 C 126.0661 32.480439 125.8487 28.896488 125.55078 27.773438 C 124.79026 24.906515 123.107 22.701944 120.79102 21.539062 C 118.92114 20.600181 117.42388 20.309941 114.95312 20.40625 z M 210.42383 20.472656 C 208.77154 20.631606 206.90837 22.103471 206.02734 23.945312 L 205.54883 24.943359 L 205.41406 24.111328 C 205.33964 23.653535 205.20027 22.792388 205.10547 22.197266 L 204.93359 21.115234 L 201.45508 21.162109 L 197.97852 21.210938 L 197.97852 31.859375 L 197.97852 42.505859 L 201.96094 42.505859 L 205.94336 42.505859 L 205.94336 37.529297 C 205.94336 32.01368 206.04808 31.304471 207.0918 29.654297 C 207.84616 28.461602 208.63308 28.127256 210.4375 28.230469 L 211.87305 28.3125 L 212.49219 24.576172 C 212.83249 22.521595 213.0758 20.806393 213.0332 20.763672 C 212.86782 20.597734 211.13299 20.404427 210.42383 20.472656 z M 115.65625 25.361328 C 117.18097 25.362217 117.97881 26.343085 118.125 28.392578 L 118.20703 29.521484 L 115.53125 29.521484 L 112.85742 29.521484 L 112.95898 28.730469 C 113.23677 26.544692 114.18581 25.360132 115.65625 25.361328 z M 185.56641 25.361328 C 186.44847 25.36213 187.24743 25.825016 187.62695 26.558594 C 187.78338 26.860911 187.94528 27.649113 187.98828 28.314453 L 188.06641 29.521484 L 185.41406 29.521484 L 182.76172 29.521484 L 182.89648 28.671875 C 183.27761 26.253195 183.99815 25.359962 185.56641 25.361328 z M 162.80859 26.025391 C 163.36437 26.025391 163.60037 26.130183 164.04297 26.574219 C 164.82291 27.356617 164.99062 28.090922 165.07812 31.117188 C 165.19043 35.001837 164.68923 36.696718 163.23047 37.361328 C 162.41989 37.730633 162.06539 37.744235 161.34375 37.429688 C 161.04532 37.299586 160.57862 36.949123 160.30664 36.650391 L 159.8125 36.105469 L 159.8125 32.089844 L 159.8125 28.074219 L 160.30859 27.386719 C 160.90864 26.555744 161.88171 26.025391 162.80859 26.025391 z M 138.7793 26.027344 C 139.57319 26.004613 140.30868 26.402878 140.70508 27.228516 C 141.43382 28.746316 141.57423 33.114078 140.96094 35.1875 C 140.60516 36.390327 140.1613 36.985304 139.33594 37.361328 C 138.58806 37.702049 138.38927 37.719961 137.67578 37.505859 C 137.41055 37.426231 136.94385 37.117033 136.63867 36.820312 L 136.08398 36.28125 L 136.08398 32.101562 L 136.08398 27.921875 L 136.50391 27.347656 C 137.13269 26.492667 137.98541 26.050075 138.7793 26.027344 z M 94.152344 59.199219 C 92.233303 59.223415 90.404535 59.350857 88.523438 59.576172 C 83.102815 60.225442 78.689607 61.609517 73.357422 64.332031 C 69.159959 66.475183 66.201396 68.456768 63.666016 70.822266 C 63.156197 71.297922 62.634749 71.656213 62.214844 71.925781 C 58.307556 75.792347 55.25509 80.534808 53.019531 86.269531 C 51.518958 90.118857 50.291016 93.829293 50.291016 94.513672 C 50.291016 97.204639 45.351331 98.5 35.095703 98.5 C 26.463543 98.5 23.615057 98.063719 15.832031 95.550781 C 7.0270182 92.707866 6.603146 92.660281 3.9785156 94.265625 C 2.1599821 96.230871 1.4882538 98.450063 1.4414062 100.70312 C 1.4440463 102.96176 2.2453702 105.14249 3.9316406 106.88477 C 4.9811227 107.96913 5.6508543 108.59411 6.5859375 108.64844 C 6.9901242 108.57409 7.4131584 108.47663 7.9414062 108.3125 C 8.4600652 108.15135 8.9758128 108.06219 9.5117188 108.00586 C 9.5584723 107.99766 9.6050858 107.986 9.6523438 107.97852 C 9.7060112 107.97391 9.7660068 107.97226 9.8203125 107.96875 C 11.575514 107.7234 13.695044 107.95671 17.191406 109.01562 C 28.431289 112.41978 35.585059 114.29689 46.103516 115.61523 C 47.850302 115.83418 48.649314 115.95742 49.064453 116.08594 L 49.988281 116.21484 L 51.375 123.11914 C 52.034871 126.40646 52.975969 129.73015 54.199219 132.97656 C 55.51905 135.07471 56.609234 136.17438 57.03125 136.84766 C 58.612823 139.91425 63.783287 144.33788 66.558594 146.19336 C 73.013137 150.86233 83.0881 154.70415 90.730469 156.18555 C 95.259263 157.38468 115.81831 160.81538 138.74414 160.42969 C 171.39102 160.27897 200.60877 155.21168 203.52148 154.7793 C 228.94133 151.03025 253.63509 144.04184 269.99805 134.65234 C 273.06152 132.89443 278.4615 129.25719 280.83984 127.34961 C 287.13737 122.29862 291.8029 117.15055 295.3457 111.3418 C 297.67738 107.51881 298.43949 105.67069 298.44141 101.94727 C 298.44141 100.57391 298.15005 99.109038 298.05273 98.605469 C 297.50319 95.761905 294.39766 91.948665 290.58008 89.429688 C 283.76359 84.931955 272.23927 81.78687 255.64258 79.894531 C 248.25481 79.052172 240.45288 78.350588 221.21094 76.798828 C 220.04515 76.704813 219.19622 76.607265 218.0625 76.513672 C 209.63516 75.821805 201.89815 75.137317 194.8125 74.40625 C 191.96093 74.111023 189.19891 73.79404 186.45898 73.478516 C 185.21475 73.335204 183.91582 73.201714 182.68555 73.052734 C 163.06334 70.680435 145.00976 67.58664 118.24414 62.318359 C 112.67203 61.2216 108.2754 60.456281 104.52344 59.949219 C 103.8925 59.868133 103.28026 59.801532 102.66797 59.734375 C 101.55303 59.603907 100.4556 59.482831 99.447266 59.404297 C 97.612694 59.270946 95.839831 59.189754 94.152344 59.199219 z M 140.56445 172.98828 L 140.56445 176.67969 C 140.56445 178.70965 140.50794 180.34181 140.43945 180.30664 C 138.41614 179.2664 137.04307 179.09922 135.25586 179.67578 C 133.17488 180.34699 131.62882 182.14663 130.93555 184.70703 C 130.19628 187.43741 130.54645 191.52953 131.69922 193.6543 C 132.29334 194.74943 133.36891 195.76591 134.35156 196.16211 C 135.57893 196.65696 138.00364 196.55128 139.15234 195.95312 L 139.15234 195.95508 C 139.60868 195.71746 140.20266 195.29104 140.4707 195.00781 C 140.93617 194.51605 141.24919 194.3493 141.20703 194.61719 C 141.19627 194.68574 141.19627 195.02386 141.20703 195.36719 L 141.22656 195.99023 L 143.88281 195.99023 L 146.53711 195.99023 L 146.53711 184.83984 L 146.53711 173.68945 L 146.16406 173.61133 C 145.9587 173.56854 144.89404 173.45402 143.79883 173.35547 C 142.70365 173.25707 141.52776 173.13343 141.18555 173.08203 L 140.56445 172.98828 z M 26.728516 175.01367 L 26.728516 185.50195 L 26.728516 195.99023 L 29.798828 195.99023 L 32.867188 195.99023 L 32.867188 192.07812 L 32.867188 188.16602 L 35.693359 188.16602 L 38.519531 188.16602 L 38.472656 186.07227 L 38.427734 183.98047 L 35.689453 183.94922 L 32.951172 183.91992 L 32.904297 181.63086 L 32.859375 179.3418 L 36.072266 179.3418 L 39.287109 179.3418 L 39.5625 177.38672 C 39.714132 176.31094 39.837998 175.33711 39.837891 175.22266 C 39.837733 175.05965 38.41617 175.01367 33.283203 175.01367 L 26.728516 175.01367 z M 155.66406 175.01367 L 155.66406 185.50195 L 155.66406 195.99023 L 158.73438 195.99023 L 161.80469 195.99023 L 161.80469 191.74414 L 161.80469 187.5 L 164.21094 187.5 L 166.61523 187.5 L 166.61523 191.74414 L 166.61523 195.99023 L 169.68555 195.99023 L 172.75586 195.99023 L 172.75586 185.50195 L 172.75586 175.01562 L 169.68945 175.01562 L 166.62305 175.01562 L 166.57812 178.88477 L 166.5332 182.75586 L 164.16797 182.80078 L 161.80469 182.84766 L 161.80469 178.93164 L 161.80469 175.01367 L 158.73438 175.01367 L 155.66406 175.01367 z M 267.00977 175.01562 L 267.01367 175.72266 C 267.01666 176.11179 267.16327 178.78978 267.34375 181.67383 C 267.52423 184.55789 267.67278 187.12461 267.67383 187.37891 L 267.67578 187.8418 L 270.04102 187.79688 L 272.40625 187.75 L 272.76562 182.00781 L 272.76367 182.00586 C 272.96189 178.84715 273.12959 175.98202 273.13672 175.63867 L 273.15039 175.01562 L 270.08008 175.01562 L 267.00977 175.01562 z M 92.273438 175.91602 C 92.221129 175.89278 92.153182 175.90438 92.0625 175.92383 C 91.859966 175.96701 90.556739 176.12888 89.167969 176.2832 L 86.644531 176.56445 L 86.597656 178.24609 L 86.548828 179.92773 L 85.595703 179.97656 L 84.640625 180.02734 L 84.640625 182.01562 L 84.640625 184.00586 L 85.636719 184.00586 L 86.632812 184.00586 L 86.634766 187.87695 C 86.636559 192.0721 86.755212 192.90512 87.535156 194.24023 C 88.406319 195.73148 89.961547 196.47727 92.224609 196.48633 C 92.973063 196.48931 93.9812 196.40685 94.464844 196.30469 C 95.545854 196.07661 97.087145 195.37112 97.083984 195.10547 C 97.082191 194.99765 96.6789 194.15973 96.185547 193.24414 C 95.488666 191.95084 95.220353 191.59275 94.984375 191.63867 C 94.817316 191.67121 94.332223 191.73501 93.90625 191.7793 C 93.200098 191.85312 93.105398 191.8184 92.828125 191.39453 C 92.562956 190.98905 92.517291 190.4858 92.470703 187.47266 L 92.416016 184.01758 L 93.957031 183.9707 L 95.498047 183.92188 L 95.699219 182.58984 C 95.810439 181.85734 95.94528 180.98085 95.998047 180.64062 L 96.09375 180.02148 L 94.308594 179.97461 L 92.523438 179.92773 L 92.476562 177.88672 C 92.442133 176.37888 92.430363 175.98573 92.273438 175.91602 z M 199.18164 175.9668 C 199.1133 175.92919 197.93736 176.03319 196.56836 176.19922 C 195.19938 176.36504 193.9131 176.50391 193.71094 176.50781 C 193.35901 176.51577 193.34213 176.58712 193.29688 178.2207 L 193.25 179.92773 L 192.29492 179.97656 L 191.3418 180.02734 L 191.3418 182.01562 L 191.3418 184.00586 L 192.33789 184.00586 L 193.33203 184.00586 L 193.33203 187.67578 C 193.33203 191.83002 193.53093 193.14983 194.33984 194.375 C 194.90511 195.23109 195.82198 195.91907 196.8457 196.25391 C 197.77885 196.55913 200.89354 196.46429 202.04492 196.0957 C 202.50127 195.94964 203.11067 195.68292 203.40039 195.50391 L 203.92773 195.17773 L 202.98633 193.33789 C 202.2821 191.96176 201.98107 191.52523 201.79492 191.60156 C 201.19614 191.8471 200.04449 191.85 199.7207 191.60742 C 199.40922 191.37349 199.38721 191.13176 199.33984 187.68164 L 199.28906 184.00586 L 200.76562 184.00586 L 202.24219 184.00586 L 202.43945 182.54883 C 202.54794 181.74771 202.68003 180.84835 202.73242 180.55078 L 202.82812 180.00977 L 201.06641 180.00977 L 199.30664 180.00977 L 199.30664 178.02148 C 199.30664 176.92818 199.25008 176.00458 199.18164 175.9668 z M 104.6543 179.34375 C 103.34553 179.34531 102.01193 179.6187 100.80859 180.1875 C 97.045741 181.96615 95.502837 187.7311 97.548828 192.37109 C 98.298682 194.07167 100.30673 195.65758 102.44141 196.23438 C 103.87213 196.62091 106.60612 196.55847 108.17188 196.10352 C 108.90426 195.89071 109.90146 195.47289 110.38867 195.17578 C 112.06559 194.15314 112.03917 194.39514 110.68359 192.58594 C 110.02398 191.70557 109.43779 191.00722 109.38281 191.0332 C 109.32772 191.05927 108.78302 191.33099 108.17188 191.63867 C 105.9873 192.7386 103.81301 192.47426 103.07227 191.01758 C 102.88394 190.6473 102.72852 190.19065 102.72852 190.00391 C 102.72852 189.66993 102.80813 189.66406 107.54102 189.66406 L 112.35352 189.66406 L 112.35156 187.875 C 112.34658 184.96193 111.72915 183.08158 110.26172 181.50781 C 108.94561 180.09629 106.83556 179.34115 104.6543 179.34375 z M 229.24805 179.35352 C 227.62601 179.32956 226.00397 179.69787 224.82227 180.39258 C 223.83323 180.97401 222.49384 182.4636 221.98828 183.54688 C 220.72369 186.25671 220.77307 189.98929 222.10938 192.63477 C 222.96472 194.32803 224.68891 195.63557 226.85352 196.23438 C 228.31175 196.6378 231.5906 196.49692 233.07812 195.9668 C 234.31732 195.52517 236.14453 194.44615 236.14453 194.15625 C 236.14453 193.9441 234.0096 191.07985 233.85156 191.08008 C 233.78989 191.08017 233.21705 191.34176 232.58008 191.66211 C 231.53863 192.18593 231.28581 192.24609 230.0625 192.24609 C 228.9387 192.24609 228.62141 192.18399 228.23438 191.89453 C 227.71288 191.50457 227.27761 190.81628 227.11719 190.12305 L 227.01172 189.66406 L 231.91016 189.66406 L 236.80859 189.66406 L 236.80859 187.94336 C 236.80859 185.12885 236.14241 183.09321 234.69531 181.48633 C 234.0045 180.71926 232.10713 179.74294 230.85352 179.50977 C 230.32962 179.41232 229.78873 179.3615 229.24805 179.35352 z M 244.37109 179.36133 C 243.72918 179.37605 243.11026 179.44779 242.55078 179.58008 C 240.51778 180.0608 239.05628 181.05683 238.32031 182.46484 C 237.93614 183.19981 237.77394 184.63863 237.96875 185.58008 C 238.3921 187.62573 239.73547 188.78566 242.91211 189.84766 C 244.99977 190.54561 245.60352 190.90939 245.60352 191.4707 C 245.60352 192.49566 243.49291 192.7566 241.73828 191.94922 C 241.20889 191.70566 240.56303 191.35636 240.30469 191.17188 L 239.83594 190.83594 L 238.48828 192.33594 C 237.74723 193.1613 237.14063 193.90996 237.14062 193.99805 C 237.14062 194.22731 238.42105 195.13619 239.29883 195.53125 C 241.39853 196.47633 244.49027 196.76876 246.75 196.23438 C 248.9699 195.70947 250.76835 194.3188 251.31641 192.70508 C 251.68788 191.61153 251.64942 189.92313 251.23242 188.99805 C 250.52649 187.43168 249.48634 186.72911 246.2832 185.64844 C 244.318 184.98539 243.7793 184.66307 243.7793 184.15234 C 243.7793 183.30444 246.02932 183.29386 247.82031 184.13477 L 248.90625 184.64648 L 249.91797 183.0625 C 251.04264 181.30327 251.04393 181.31105 249.86328 180.61719 C 248.43804 179.7796 246.29683 179.31718 244.37109 179.36133 z M 59.59375 179.37695 C 57.895315 179.2767 56.131943 179.56699 54.742188 180.27344 C 52.950432 181.18435 51.426671 183.28665 50.972656 185.4707 C 50.706623 186.75048 50.744113 189.58749 51.042969 190.75391 C 51.774675 193.61025 53.591702 195.49985 56.310547 196.23438 C 57.590757 196.58028 60.271002 196.55502 61.599609 196.18555 C 63.055379 195.78064 64.012888 195.19419 65.013672 194.0957 C 66.450289 192.51879 67.105453 190.6109 67.105469 188 C 67.105487 184.61957 66.169799 182.41267 64.0625 180.82422 C 62.927549 179.96872 61.292185 179.47721 59.59375 179.37695 z M 183.38477 179.37695 C 181.68633 179.2767 179.92491 179.56699 178.53516 180.27344 C 176.7434 181.18435 175.21963 183.28665 174.76562 185.4707 C 174.49961 186.75048 174.53717 189.58749 174.83594 190.75391 C 175.56763 193.61025 177.38276 195.49985 180.10156 196.23438 C 181.38176 196.58028 184.06204 196.55502 185.39062 196.18555 C 186.8464 195.78064 187.80391 195.19419 188.80469 194.0957 C 190.24133 192.51879 190.89646 190.6109 190.89648 188 C 190.89653 184.61957 189.96082 182.41267 187.85352 180.82422 C 186.71856 179.96872 185.08319 179.47721 183.38477 179.37695 z M 79.650391 179.38086 C 77.972313 179.26002 76.549309 179.73967 75.21875 180.875 C 74.918961 181.13081 74.60741 181.33984 74.527344 181.33984 C 74.447245 181.33984 74.331207 181.04005 74.269531 180.67383 L 74.158203 180.00977 L 71.517578 180.00977 L 68.876953 180.00977 L 68.876953 188 L 68.876953 195.99023 L 71.863281 195.99023 L 74.851562 195.99023 L 74.851562 190.55859 L 74.851562 185.125 L 75.576172 184.39844 C 76.403385 183.56859 77.002755 183.45193 77.414062 184.04102 C 77.635841 184.35867 77.671875 185.23078 77.671875 190.20117 L 77.671875 195.99023 L 80.667969 195.99023 L 83.664062 195.99023 L 83.613281 189.28906 C 83.563987 182.70297 83.556632 182.57584 83.181641 181.75977 C 82.464573 180.19908 81.442164 179.5099 79.650391 179.38086 z M 124.78711 179.38086 C 123.10902 179.26002 121.68405 179.73967 120.35352 180.875 C 120.05371 181.13081 119.7441 181.33984 119.66406 181.33984 C 119.58386 181.33984 119.46792 181.04005 119.40625 180.67383 L 119.29297 180.00977 L 116.65234 180.00977 L 114.01367 180.00977 L 114.01367 188 L 114.01367 195.99023 L 117 195.99023 L 119.98633 195.99023 L 119.98633 190.55859 L 119.98633 185.125 L 120.71094 184.39844 C 121.53814 183.56859 122.13751 183.45193 122.54883 184.04102 C 122.77062 184.35867 122.80859 185.23078 122.80859 190.20117 L 122.80859 195.99023 L 125.80273 195.99023 L 128.79883 195.99023 L 128.74805 189.28906 C 128.69853 182.70297 128.69147 182.57584 128.31641 181.75977 C 127.59933 180.19908 126.57888 179.5099 124.78711 179.38086 z M 258.72852 179.39258 C 255.91633 179.56047 254.01534 180.53893 253.00391 182.33984 C 251.96097 184.19684 252.47083 186.88753 254.11914 188.22656 C 255.05383 188.98593 255.57096 189.23274 257.66992 189.91992 C 259.542 190.53286 259.98709 190.76718 260.04492 191.16992 C 260.13538 191.79935 260.00865 192.02525 259.42578 192.26953 C 258.38907 192.70409 256.62056 192.31264 255.11328 191.31445 L 254.41797 190.85352 L 252.98438 192.41992 L 251.55078 193.98633 L 252.02148 194.40625 C 252.67768 194.99558 254.64787 195.93815 255.82031 196.22266 C 257.15895 196.54747 259.95323 196.55092 261.36133 196.23047 C 262.45613 195.98069 264.05533 195.15871 264.78906 194.4707 C 265.95615 193.37625 266.45639 191.20112 265.94531 189.4375 C 265.43627 187.68088 264.15718 186.71393 260.95312 185.66602 C 258.73278 184.93981 258.38086 184.74903 258.38086 184.26953 C 258.38086 183.61191 258.75585 183.45239 260.10156 183.53906 C 260.99394 183.59637 261.61079 183.7532 262.39453 184.12109 L 263.46484 184.625 L 264.50195 183.02539 L 265.53906 181.42773 L 265.1543 181.11719 C 263.70598 179.9407 261.13192 179.24906 258.72852 179.39258 z M 215.07031 179.42578 C 213.35906 179.42578 212.41036 179.75242 211.16797 180.76758 L 210.29102 181.48438 L 210.10547 180.74609 L 209.92188 180.00977 L 207.35156 180.00977 L 204.78125 180.00977 L 204.78125 188 L 204.78125 195.99023 L 207.68555 195.99023 L 210.58984 195.99023 L 210.58984 190.64453 L 210.58984 185.30078 L 211.08594 184.67383 C 212.07756 183.41777 213.2668 183.38725 213.46875 184.61328 C 213.52653 184.96462 213.57516 187.66839 213.57617 190.62109 L 213.57812 195.99023 L 216.48047 195.99023 L 219.38477 195.99023 L 219.38281 189.45703 C 219.38281 185.69492 219.31258 182.67277 219.21875 182.33398 C 218.91738 181.24574 218.15316 180.25188 217.28711 179.82422 C 216.62766 179.49856 216.22287 179.42578 215.07031 179.42578 z M 49.845703 179.48828 C 49.153562 179.47833 48.652613 179.57657 48.191406 179.8125 C 47.388548 180.22337 46.412567 181.27573 46.044922 182.12695 C 45.735637 182.84315 45.735749 182.84109 45.476562 181.21484 L 45.283203 180.00977 L 42.726562 180.00977 L 40.169922 180.00977 L 40.169922 188 L 40.169922 195.99023 L 43.074219 195.99023 L 45.976562 195.99023 L 45.976562 192.3457 C 45.976562 189.19044 46.022022 188.55842 46.304688 187.64258 C 46.879797 185.77904 48.12046 184.92002 49.710938 185.28516 L 50.451172 185.45508 L 50.546875 184.9375 C 50.599547 184.65307 50.813514 183.35407 51.021484 182.05078 C 51.455479 179.33145 51.537999 179.51217 49.845703 179.48828 z M 229.2207 183.14258 C 229.75408 183.18487 230.26388 183.46609 230.55664 183.9707 C 230.74589 184.29693 230.88316 184.86817 230.89648 185.38477 L 230.91797 186.25195 L 229.06445 186.29883 C 227.90256 186.32838 227.17077 186.2813 227.10352 186.17188 C 226.91813 185.87094 227.35948 184.17821 227.73633 183.74609 C 228.129 183.2958 228.68733 183.10029 229.2207 183.14258 z M 104.72266 183.17188 C 105.64716 183.17188 106.30684 183.81591 106.46484 184.87305 C 106.67294 186.26521 106.6989 186.24579 104.60742 186.29883 C 103.58896 186.3247 102.71885 186.28622 102.67383 186.21289 C 102.54809 186.0088 102.85347 184.56879 103.14062 184.01172 C 103.46571 183.38109 103.85939 183.17188 104.72266 183.17188 z M 139.19922 183.58594 C 139.43688 183.64574 139.84107 183.84406 140.09766 184.02734 L 140.56445 184.36133 L 140.56445 187.73047 L 140.56445 191.10156 L 140.10742 191.53711 C 139.38746 192.22616 138.65904 192.44567 137.99219 192.17188 C 137.39425 191.92634 137.02486 191.33912 136.80469 190.28516 C 136.37946 188.24952 136.62716 185.51685 137.33594 184.43164 C 137.6907 183.8885 138.65812 183.44968 139.19922 183.58594 z M 59.003906 183.67188 C 59.537492 183.67188 59.808222 183.77597 60.134766 184.10352 C 60.831555 184.80251 60.994141 185.5427 60.994141 188 C 60.994141 189.96674 60.94966 190.34604 60.628906 191.04297 C 60.356048 191.63584 60.113174 191.90224 59.679688 192.08398 C 59.017783 192.3614 58.851745 192.36742 58.222656 192.13672 C 57.223434 191.77013 56.644822 189.73807 56.810547 187.17188 C 56.968284 184.7291 57.63157 183.67187 59.003906 183.67188 z M 182.79492 183.67188 C 183.32851 183.67188 183.59924 183.77597 183.92578 184.10352 C 184.62256 184.80251 184.78711 185.5427 184.78711 188 C 184.78711 189.96674 184.74051 190.34604 184.41992 191.04297 C 184.14705 191.63584 183.90422 191.90224 183.4707 192.08398 C 182.80882 192.3614 182.64274 192.36742 182.01367 192.13672 C 181.01445 191.77013 180.43584 189.73807 180.60156 187.17188 C 180.75933 184.7291 181.42259 183.67187 182.79492 183.67188 z M 269.60742 190.41211 C 268.65952 190.52599 267.76866 191.07188 267.30859 192.11523 C 266.62134 193.67382 267.21141 195.43103 268.68164 196.20703 C 269.56137 196.67139 271.10027 196.53321 271.9043 195.91797 C 272.73583 195.28177 273.20994 194.18856 273.10938 193.13867 C 272.92677 191.23221 271.18725 190.22231 269.60742 190.41211 z " />
  <path
     id="path3561"
     style="display:inline;fill:#056013;fill-opacity:1;stroke-width:0.873543"
     d="m 61.700126,-27.839844 c -0.100177,-0.02581 -0.240833,0.0054 -0.405738,0.07031 -0.962989,0.441534 -5.213426,4.679092 -6.324741,6.30664 -1.155195,1.691801 -2.460419,4.488653 -3.558164,7.308594 -1.092173,3.077863 -1.839727,6.2286108 -2.116202,8.6816408 -0.03145,0.279019 -0.283341,0.7427091 -0.717998,1.2304687 -0.02564,0.029638 -0.05991,0.058688 -0.08751,0.087891 -0.719014,0.7716111 -1.880852,1.5775963 -3.373195,1.7851563 C 40.29628,-1.6987226 32.015668,-1.1353236 24.147475,-2.484375 21.034401,-2.9856635 18.120112,-3.7847688 14.409762,-5.1445312 12.504495,-5.8427673 10.07237,-6.7107272 9.0038983,-7.0742188 7.9353991,-7.4377282 6.8095274,-7.8817089 6.5018468,-8.0605469 5.7481651,-8.4986201 4.5590269,-7.5485285 3.4767114,-6.8125 l -0.8691546,0.8222656 c -2.0381499,2.0252974 -2.74468662,4.3444613 -2.79442157,6.6933594 0.002688,2.2586344 0.81869324,4.4393607 2.53586297,6.1816406 1.5023888,1.5244009 2.2191881,2.1956137 4.0355028,1.5507813 2.2637484,-0.8036633 4.539658,-0.8854448 9.467222,0.5800781 11.445843,3.404152 18.73067,5.281252 29.441866,6.599609 2.381198,0.293085 3.387032,0.409901 3.446785,0.605469 0.03249,0.106167 0.120776,1.204325 0.306293,2.503906 l 0.596673,2.890625 c 0,0 0.786987,4.789772 2.635309,9.123047 1.725224,3.314048 3.168856,4.837423 3.852523,5.744141 0.3485,-0.950771 -3.394122,-10.541992 6.002537,-6.517578 6.508337,2.787407 8.968254,7.172989 -0.363971,-8.291016 C 58.157483,15.688134 82.299714,13.213933 68.38486,10.634766 44.142002,5.4918812 88.523267,-2.1398437 67.36057,-4.6132812 c -15.943151,-2.5185075 8.193469,-14.4293778 1.9551,-13.9550778 -13.550492,1.030249 -8.385253,0.65625 -8.385253,0.65625 -2.640952,-0.282706 2.220657,-9.553859 0.769709,-9.927735 z"
     transform="matrix(0.98200667,0,0,1,1.6249087,100)" />
</svg>
