<?xml version="1.0" encoding="UTF-8" standalone="no"?>
<svg
   xmlns:dc="http://purl.org/dc/elements/1.1/"
   xmlns:cc="http://creativecommons.org/ns#"
   xmlns:rdf="http://www.w3.org/1999/02/22-rdf-syntax-ns#"
   xmlns:svg="http://www.w3.org/2000/svg"
   xmlns="http://www.w3.org/2000/svg"
   width="300"
   height="200"
   viewBox="0 0 300 200">
  <metadata>
    <rdf:RDF>
      <cc:Work
         rdf:about="">
        <dc:format>image/svg+xml</dc:format>
        <dc:type rdf:resource="http://purl.org/dc/dcmitype/StillImage"></dc:type>
        <dc:title></dc:title>
      </cc:Work>
    </rdf:RDF>
  </metadata>
  <g
     style="display:inline"
     transform="matrix(0.99625481,0,0,0.9949823,0.30004946,99.600891)">
    <path
       style="display:inline;fill:#ffffff"
       d="M -0.30117743,-100.10318 H 300.8266 V 70.754132 H -0.30117743 Z M 204.11087,55.456796 c 25.51545,-3.767955 50.30107,-10.791682 66.72557,-20.228545 3.075,-1.766789 8.49632,-5.423116 10.88362,-7.340323 6.32121,-5.076462 11.00358,-10.250513 14.55972,-16.088577 2.34044,-3.8422671 3.10676,-5.6988251 3.10868,-9.4410411 0,-1.38028298 -0.29369,-2.85191398 -0.39137,-3.35802398 -0.55161,-2.85791002 -3.66933,-6.69111902 -7.50128,-9.22280492 -6.84212,-4.520423 -18.40822,-7.681144 -35.06734,-9.58303 -7.41556,-0.846609 -15.24777,-1.551648 -34.56209,-3.111236 -40.03309,-3.232585 -60.62119,-6.131629 -103.35317,-14.553328 -15.46351,-3.047577 -22.209047,-3.670882 -29.83253,-2.756585 -5.441011,0.652546 -9.870876,2.043406 -15.223117,4.779656 -4.21325,2.153964 -6.789328,3.966181 -9.769087,6.50098 -2.715368,2.309889 -5.09182,4.73622 -7.277255,7.839335 -3.23506,4.593484 -5.236942,10.30969 -6.022555,15.7470139 -0.276591,1.914316 -1.204614,2.12124 -2.870444,2.946786 -1.710201,0.847535 -7.717446,1.180622 -14.036095,1.022187 -7.342289,-0.18411 -11.265025,-0.927593 -17.822384,-3.377884 -1.87802,-0.701758 -4.276279,-1.574838 -5.329471,-1.940163 -1.0532192,-0.365343 -2.1630704,-0.811318 -2.4663509,-0.991058 -0.7429035,-0.440283 -1.9140549,0.515301 -2.9808925,1.255042 l -0.858055,0.826341 c -2.0090029,2.035513 -2.7048911,4.36569 -2.7539148,6.726436 0.00265,2.270027 0.806369,4.461995 2.498982,6.213063 1.4809035,1.53209 2.1875587,2.206772 3.9778988,1.558687 2.2313752,-0.807717 4.4755704,-0.889469 9.3326664,0.583446 11.282159,3.4213221 18.461588,5.3068691 29.019607,6.6318761 2.347145,0.294563 3.339831,0.412712 3.39873,0.609267 0.04203,0.140047 0.610227,2.470224 2.320754,9.3002 1.710527,6.829976 4.641392,10.458176 5.24987,11.430168 1.587522,3.082072 6.777087,7.528639 9.562833,9.393474 6.478821,4.692529 16.591598,8.552406 24.262711,10.041273 4.545829,1.205186 25.183189,4.653756 48.195249,4.266116 32.76967,-0.15148 62.09683,-5.244184 65.02051,-5.678748 z m -71.3564,-104.192765 3.58114,-0.366329 0.0441,-4.73148 0.0442,-4.731473 0.62203,0.500077 c 2.04766,1.646277 5.02323,1.877571 7.64399,0.594189 2.46572,-1.207429 4.2352,-4.017161 4.89646,-7.775025 0.30238,-1.71821 0.21548,-5.504673 -0.16891,-7.361552 -0.34175,-1.650889 -1.31412,-3.867456 -2.06701,-4.711832 -1.3423,-1.505422 -3.24483,-2.317971 -5.41105,-2.311019 -2.20797,0.0072 -3.6751,0.543184 -5.29805,1.935899 l -0.86741,0.744346 -0.10646,-0.798411 c -0.0585,-0.439132 -0.12876,-0.873711 -0.15595,-0.965728 -0.0316,-0.106685 -1.32456,-0.149811 -3.56873,-0.119023 l -3.51923,0.04826 v 15.218572 15.218575 l 0.37477,-0.01088 c 0.20614,-0.0062 1.9863,-0.175723 3.95593,-0.377197 z m 5.26237,-13.67271 c -0.26623,-0.08003 -0.7347,-0.389446 -1.04103,-0.687663 l -0.55694,-0.542222 v -4.201032 -4.201029 l 0.42317,-0.5761 c 1.26229,-1.718606 3.42076,-1.780489 4.21653,-0.120884 0.73148,1.525458 0.87243,5.916128 0.25683,8.00001 -0.35712,1.208895 -0.80357,1.80642 -1.63204,2.184342 -0.75069,0.342439 -0.95035,0.35976 -1.66652,0.144578 z m 19.09766,13.624285 3.12306,-0.29912 v -4.735088 c 0,-2.604294 0.0418,-4.735083 0.0931,-4.735083 0.0514,0 0.36974,0.222434 0.70789,0.494292 1.98967,1.599548 4.93442,1.869559 7.47167,0.685108 2.12249,-0.990821 4.00647,-3.637373 4.82951,-6.784221 0.47309,-1.808755 0.42249,-7.177087 -0.085,-9.034636 -0.57654,-2.109767 -1.22407,-3.326868 -2.39566,-4.502726 -1.35638,-1.361326 -2.41394,-1.793965 -4.64384,-1.899745 -2.41231,-0.114441 -4.08971,0.470121 -5.74392,2.001718 l -0.70354,0.651386 -0.0981,-0.509458 c -0.0541,-0.2802 -0.13748,-0.716496 -0.18553,-0.969556 l -0.0873,-0.460091 h -3.49376 -3.49377 v 15.290162 15.290163 l 0.7912,-0.09199 c 0.43513,-0.05059 2.19656,-0.226602 3.91425,-0.391117 z m 4.66046,-13.700908 c -0.29955,-0.130758 -0.76801,-0.483387 -1.04101,-0.783627 l -0.49639,-0.545878 v -4.036655 -4.03666 l 0.49748,-0.68979 c 0.6023,-0.835167 1.58036,-1.368115 2.51073,-1.368115 0.55787,0 0.7944,0.105326 1.23866,0.551601 0.78287,0.786346 0.95076,1.524421 1.0386,4.565954 0.11273,3.904248 -0.39073,5.607507 -1.85498,6.27547 -0.81363,0.371168 -1.16874,0.383865 -1.89309,0.06773 z m -41.67939,5.417542 c 1.41671,-0.353209 3.96478,-1.561201 4.819,-2.284588 l 0.57161,-0.484061 -1.4666,-1.993739 c -0.80661,-1.09656 -1.51892,-2.051832 -1.58288,-2.122824 -0.0639,-0.07104 -0.86051,0.253675 -1.77006,0.721498 -1.37972,0.709652 -1.84835,0.866275 -2.82839,0.945292 -2.54944,0.205543 -4.17271,-0.854627 -4.50507,-2.942262 l -0.10932,-0.686794 h 6.42647 6.42648 l 0.11396,-0.610369 c 0.17417,-0.932445 -0.0441,-4.534968 -0.34314,-5.663685 -0.76338,-2.881385 -2.45355,-5.098077 -4.77825,-6.266825 -1.87691,-0.943618 -3.37901,-1.235573 -5.85906,-1.138778 -2.25941,0.08817 -3.7721,0.524222 -5.35844,1.544529 -1.21492,0.781414 -2.64249,2.41907 -3.32198,3.810831 -0.98193,2.011256 -1.30523,3.539274 -1.30107,6.14929 0.005,2.557129 0.33173,4.157298 1.22806,5.997944 0.62944,1.2926 2.36571,3.186232 3.53869,3.859438 2.71802,1.559962 6.68209,2.01724 10.09999,1.165103 z m -6.88844,-14.159507 c 0.27883,-2.196804 1.23136,-3.388571 2.70733,-3.387369 1.53045,8.93e-4 2.33264,0.987039 2.47938,3.046872 l 0.081,1.135204 h -2.68423 -2.68421 l 0.10088,-0.794707 z m 76.92875,14.176802 c 1.64037,-0.380961 2.98609,-0.969807 4.45363,-1.948776 l 1.12237,-0.748695 -0.9432,-1.285095 c -1.86481,-2.540772 -2.26789,-3.052664 -2.36692,-3.005779 -0.0554,0.02614 -0.81261,0.406419 -1.68291,0.844953 -1.81568,0.91491 -2.99781,1.122123 -4.55233,0.797955 -1.49547,-0.311832 -2.40148,-1.282993 -2.69796,-2.891929 l -0.11563,-0.627407 h 6.51454 6.51455 v -2.160293 c 0,-4.251067 -0.9274,-6.872522 -3.21105,-9.076674 -0.99114,-0.956642 -2.86039,-1.907602 -4.38911,-2.23293 -1.6693,-0.355248 -4.2334,-0.319324 -5.79226,0.08111 -4.81276,1.236387 -7.58495,5.287729 -7.59221,11.09532 -0.003,2.458288 0.32573,4.124943 1.1733,5.947513 2.09353,4.501755 7.56621,6.603929 13.56519,5.210696 z m -6.72837,-14.235456 c 0.38256,-2.430882 1.10675,-3.330088 2.6809,-3.328715 0.88538,8.06e-4 1.6865,0.467678 2.06745,1.204956 0.15702,0.303843 0.31997,1.095445 0.36313,1.764142 l 0.0783,1.212978 h -2.66204 -2.66205 z m -86.964071,8.716841 v -5.186548 h 3.747701 3.74769 v -2.927894 -2.927889 h -3.74769 -3.747701 v -3.011546 -3.011545 h 4.330671 c 4.01081,0 4.33119,-0.02158 4.3375,-0.292781 0.004,-0.16104 0.17975,-1.440946 0.39112,-2.84424 l 0.38427,-2.551454 h -8.802611 -8.802598 v 13.970227 13.970223 h 4.080823 4.080825 z m 110.099021,0.184935 c 0,-5.543443 0.10373,-6.256629 1.15137,-7.915129 0.7572,-1.198712 1.54683,-1.535345 3.35804,-1.431612 l 1.44171,0.08253 0.62108,-3.754456 c 0.34158,-2.064942 0.58608,-3.789585 0.54332,-3.832522 -0.16601,-0.166775 -1.90646,-0.361482 -2.61829,-0.292909 -1.6585,0.159751 -3.52997,1.639689 -4.41431,3.490823 l -0.47955,1.003848 -0.13624,-0.836541 c -0.0747,-0.460103 -0.21408,-1.325919 -0.30924,-1.924044 l -0.173,-1.087499 -3.49,0.04827 -3.49001,0.04826 v 10.701253 10.701254 h 3.99757 3.99754 v -5.001615 z" />
  </g>
  <g
     style="display:inline"
     transform="matrix(0.98200667,0,0,1,1.6249087,100)">
    <path
       style="fill:#056013;fill-opacity:1;stroke-width:0.873543"
       d="m 54.552056,34.320337 c -3.245324,-4.66568 -4.543968,-12.70452 -4.543968,-12.70452 l -1.118146,-5.42315 -5.857553,-0.83711 C 31.94403,13.770907 22.717177,11.280727 16.511986,9.3625172 c -4.505672,-1.39284 -7.0918033,-1.73308 -8.7778824,-0.93838 -3.4405674,1.6216498 -6.3161397,-1.59852 -7.52382245,-5.36252 -0.87243826,-2.71915002 -0.46830769,-3.81968002 0.48700921,-6.24064 1.07708884,-2.72956 5.34481344,-6.02079 6.54580774,-5.04808 0.3173496,0.25703 1.1792139,0.64833 1.9152543,0.86954 0.7360396,0.22122 4.4287196,1.56816 8.2059546,2.99318 9.49147,3.58082998 21.788626,2.87564 28.117394,1.99542 2.496562,-0.34723 4.096339,-2.36851 4.179186,-3.10358 0.585792,-5.1974402 3.2255,-13.5367602 6.974211,-17.6472802 11.835061,-12.97731 0.986728,4.81447 4.6611,5.2078 0,0 -5.164976,0.37345 8.38553,-0.6568 6.238375,-0.4743 -17.899248,11.4367302 -1.956081,13.9552402 21.162718,2.47344 -23.217664,10.10625 1.025218,15.2491398 13.914868,2.57917 -10.22718,5.05187 -6.614923,11.03757 9.332235,15.46402 6.871157,11.07917 0.362813,8.29176 -12.260935,-5.25113 -2.144195,12.6975 -7.946699,4.35545 z" />
  </g>
  <path
     style="fill:#ffffff;fill-opacity:1"
     d="M 0,163.568 H 300 V 200 H 0 Z m 61.295287,32.599 c 1.461245,-0.40695 2.42229,-0.99597 3.426838,-2.1 1.442021,-1.58487 2.098996,-3.50293 2.099012,-6.127 1.8e-5,-3.39748 -0.939538,-5.61554 -3.054763,-7.212 -2.27844,-1.71963 -6.563532,-1.97303 -9.353498,-0.553 -1.798494,0.91551 -3.32854,3.02692 -3.784262,5.222 -0.267035,1.28623 -0.2289,4.1377 0.07108,5.31 0.734459,2.87076 2.556482,4.76977 5.285553,5.508 1.285025,0.34766 3.976465,0.32334 5.31007,-0.048 z m -3.39069,-4.069 c -1.002981,-0.36844 -1.582572,-2.41085 -1.416224,-4.99 0.15833,-2.4551 0.823362,-3.518 2.200861,-3.518 0.535592,0 0.807612,0.1038 1.135384,0.433 0.69941,0.70253 0.863629,1.44731 0.863629,3.917 0,1.97666 -0.04592,2.35856 -0.36788,3.059 -0.273885,0.59586 -0.517283,0.86334 -0.952401,1.046 -0.664393,0.27881 -0.831915,0.28486 -1.463369,0.053 z m 36.379807,4.188 c 1.085076,-0.22923 2.632419,-0.93901 2.629246,-1.206 -0.0018,-0.10836 -0.4075,-0.94979 -0.902709,-1.87 -0.699502,-1.29982 -0.96839,-1.65915 -1.205255,-1.613 -0.167687,0.0327 -0.654722,0.0955 -1.082297,0.14 -0.708808,0.0742 -0.804351,0.04 -1.082667,-0.386 -0.266166,-0.40753 -0.312122,-0.91165 -0.358885,-3.94 l -0.05367,-3.473 1.546,-0.049 1.546002,-0.048 0.202968,-1.338 c 0.111677,-0.73619 0.2463,-1.61806 0.299265,-1.96 l 0.09628,-0.622 -1.791625,-0.047 -1.791639,-0.047 -0.04682,-2.052 c -0.04608,-2.02059 -0.05232,-2.0502 -0.416413,-1.972 -0.203296,0.0434 -1.510123,0.20744 -2.904178,0.362 l -2.534559,0.281 -0.04719,1.691 -0.04717,1.69 -0.95774,0.05 -0.95775,0.05 v 1.999 1.999 h 0.999387 0.999387 l 0.0018,3.89 c 0.0018,4.21631 0.120504,5.05514 0.903382,6.397 0.87444,1.49877 2.436414,2.2469 4.707989,2.256 0.751268,0.003 1.763155,-0.0783 2.248617,-0.181 z m 13.757806,-0.202 c 0.73515,-0.21388 1.73678,-0.63339 2.22582,-0.932 1.68322,-1.0278 1.65565,-0.78467 0.29498,-2.603 -0.66209,-0.88481 -1.24901,-1.58711 -1.30419,-1.561 -0.0553,0.0262 -0.60227,0.30077 -1.21572,0.61 -2.19279,1.10548 -4.3767,0.83803 -5.12024,-0.626 -0.18903,-0.37215 -0.34368,-0.83031 -0.34368,-1.018 0,-0.33566 0.0797,-0.341 4.83038,-0.341 h 4.83035 l -0.003,-1.798 c -0.005,-2.92776 -0.62325,-4.81829 -2.0962,-6.4 -2.1137,-2.26983 -6.26885,-2.85046 -9.48982,-1.326 -3.777009,1.78762 -5.324582,7.58059 -3.270895,12.244 0.752675,1.70915 2.768545,3.3023 4.911245,3.882 1.43611,0.38849 4.17876,0.32625 5.7504,-0.131 z m -5.51895,-9.94 c -0.12621,-0.20512 0.18035,-1.65212 0.46859,-2.212 0.32631,-0.63381 0.72147,-0.844 1.58798,-0.844 0.92798,0 1.59015,0.64753 1.74875,1.71 0.20888,1.39919 0.23491,1.37969 -1.86443,1.433 -1.02229,0.026 -1.8957,-0.0133 -1.94089,-0.087 z m 36.6168,9.79 c -0.51657,0 1.05297,-0.66634 1.32202,-0.951 0.46722,-0.49424 0.78261,-0.66124 0.74029,-0.392 -0.0108,0.0689 -0.0108,0.40694 0,0.752 l 0.0198,0.628 h 2.66504 2.66501 v -11.207 -11.206 l -0.37476,-0.079 c -0.20613,-0.043 -1.27424,-0.15895 -2.37357,-0.258 -1.0993,-0.0989 -2.27985,-0.22234 -2.62335,-0.274 l -0.62463,-0.095 v 3.71 c 0,-2.0402 -0.0562,3.68035 -0.12494,3.645 -2.03093,-1.04549 -3.40784,-1.21347 -5.20177,-0.634 -2.0888,0.67459 -3.64068,2.48434 -4.33656,5.05766 -0.74205,2.74415 -0.39236,6.8552 0.76474,8.99068 0.59636,1.10066 1.67676,2.12446 2.66311,2.52266 1.23198,0.49735 6.11996,-0.21 4.81963,-0.21 z m -1.16596,-3.802 c -0.60019,-0.24677 -0.97042,-0.83572 -1.19142,-1.895 -0.42683,-2.0459 -0.1775,-4.79332 0.53394,-5.884 0.3561,-0.54588 1.32589,-0.98694 1.86902,-0.85 0.23855,0.0601 0.6445,0.25974 0.90202,0.444 l 0.4682,0.335 v 3.387 3.387 l -0.45807,0.439 c -0.72267,0.69253 -1.45433,0.91219 -2.12369,0.637 z m 47.57817,4.035 c 1.46125,-0.40695 2.4223,-0.99597 3.42684,-2.1 1.44204,-1.58487 2.09896,-3.50293 2.09898,-6.127 5e-5,-3.39748 -0.93949,-5.61554 -3.05473,-7.212 -2.27844,-1.71963 -6.56352,-1.97303 -9.3535,-0.553 -1.79849,0.91551 -3.32855,3.02692 -3.78426,5.222 -0.26703,1.28623 -0.22889,4.1377 0.071,5.31 0.73444,2.87076 2.55651,4.76977 5.28555,5.508 1.28501,0.34766 3.97648,0.32334 5.31007,-0.048 z m -3.39067,-4.069 c -1.00298,-0.36844 -1.58261,-2.41085 -1.41626,-4.99 0.15836,-2.4551 0.82338,-3.518 2.20087,-3.518 0.53559,0 0.80763,0.1038 1.1354,0.433 0.6994,0.70253 0.86362,1.44731 0.86362,3.917 0,1.97666 -0.0461,2.35856 -0.36789,3.059 -0.2739,0.59586 -0.51726,0.86334 -0.95241,1.046 -0.66437,0.27881 -0.8319,0.28486 -1.46333,0.053 z m 20.1063,3.978 c -0.48101,0 1.35976,-0.25204 1.36158,-0.594 l 0.52873,-0.327 -0.94514,-1.85 c -0.70688,-1.38307 -1.00814,-1.82272 -1.19499,-1.746 -0.60103,0.24678 -1.75706,0.2498 -2.08206,0.006 -0.31265,-0.23511 -0.33621,-0.47748 -0.38379,-3.945 l -0.0507,-3.695 h 1.48286 1.48286 l 0.19802,-1.464 c 0.10889,-0.80516 0.24103,-1.70793 0.29362,-2.007 l 0.0957,-0.544 h -1.76748 -1.76747 v -1.998 c 0,-1.09883 -0.0562,-2.02903 -0.1249,-2.067 -0.0686,-0.0378 -1.24925,0.0671 -2.6234,0.234 -1.37413,0.16666 -2.66449,0.30608 -2.86741,0.31 -0.35325,0.008 -0.37096,0.0802 -0.4164,1.722 l -0.0473,1.715 -0.95776,0.05 -0.95775,0.05 v 2 1.999 h 0.9994 0.99935 v 3.69 c 0,4.17519 0.19918,5.50065 1.01114,6.732 0.56739,0.86041 1.48803,1.55147 2.5156,1.888 0.93666,0.30676 6.43153,-0.159 5.2179,-0.159 z m 31.14955,-0.129 c 1.24385,-0.44385 3.07944,-1.52864 3.07944,-1.82 0,-0.21322 -2.14386,-3.09223 -2.30249,-3.092 -0.0619,9e-5 -0.63578,0.26403 -1.27515,0.586 -1.04536,0.52646 -1.29996,0.585 -2.52787,0.585 -1.12803,0 -1.44721,-0.0611 -1.83571,-0.352 -0.52346,-0.39193 -0.95874,-1.08428 -1.11983,-1.781 l -0.10636,-0.46 h 4.91683 4.91684 v -1.73 c 0,-2.82871 -0.66885,-4.87501 -2.12139,-6.49 -0.69341,-0.77094 -2.59768,-1.75165 -3.85602,-1.986 -2.10346,-0.39175 -4.47361,-0.045 -6.05516,0.886 -0.99275,0.58436 -2.33645,2.08326 -2.84391,3.172 -1.26935,2.72351 -1.21916,6.47418 0.12217,9.133 0.85857,1.70182 2.58771,3.01617 4.76046,3.618 1.46373,0.40547 4.75502,0.2638 6.24815,-0.269 z m -5.9965,-9.844 c -0.18608,-0.30245 0.25758,-2.0037 0.63585,-2.438 0.78829,-0.90513 2.24181,-0.78932 2.82954,0.225 0.18996,0.32787 0.32799,0.9028 0.34136,1.422 l 0.0223,0.871 -1.86072,0.047 c -1.16627,0.0295 -1.90093,-0.018 -1.96844,-0.128 z m 19.72053,10.112 c 2.28985,0 4.03339,-1.92414 4.58351,-3.546 0.37287,-1.09906 0.33467,-2.79525 -0.0839,-3.725 -0.70859,-1.57427 -1.75242,-2.28188 -4.9676,-3.368 -1.9726,-0.66639 -2.51469,-0.9907 -2.51469,-1.504 0,-0.85218 2.25839,-0.86115 4.05612,-0.016 l 1.09096,0.513 1.01601,-1.591 c 1.12905,-1.76801 1.12909,-1.76064 -0.056,-2.458 -1.90747,-1.12241 -5.09283,-1.57483 -7.33918,-1.043 -2.04065,0.48315 -3.50726,1.48487 -4.24599,2.9 -0.38562,0.73867 -0.5487,2.1838 -0.35316,3.13 0.42494,2.05597 1.7739,3.22165 4.96248,4.289 2.09551,0.70147 2.70094,1.06786 2.70094,1.632 0,1.03013 -2.11974,1.29345 -3.88097,0.482 -0.53138,-0.24479 -1.17825,-0.59761 -1.43759,-0.783 l -0.47144,-0.337 -1.35236,1.508 c -0.74388,0.82949 -1.35241,1.58147 -1.35241,1.67 0,0.23042 1.28427,1.14495 2.16535,1.542 2.1076,0.94985 5.21163,1.24209 7.47986,0.705 z m 14.66641,-0.004 c 0,-1.12723 2.70467,-1.07552 3.44116,-1.767 1.17148,-1.09997 1.67291,-3.28748 1.15991,-5.06 -0.51096,-1.76548 -1.7946,-2.73579 -5.0107,-3.789 -2.2287,-0.72987 -2.58175,-0.92208 -2.58175,-1.404 0,-0.66094 0.37676,-0.82111 1.72753,-0.734 0.89573,0.0576 1.51308,0.21553 2.2999,0.585 l 1.07545,0.505 1.04058,-1.606 1.04058,-1.606 -0.38514,-0.314 c -1.45376,-1.18242 -4.03869,-1.87624 -6.45114,-1.732 -2.82276,0.16874 -4.7294,1.15199 -5.74464,2.962 -1.04686,1.86636 -0.5353,4.57121 1.11921,5.917 0.9382,0.7632 1.45697,1.01035 3.56382,1.701 1.87912,0.61603 2.32597,0.85123 2.38402,1.256 0.0908,0.6326 -0.0374,0.86049 -0.62246,1.106 -1.04061,0.43675 -2.81483,0.0431 -4.32789,-0.96 l -0.69841,-0.463 -1.43845,1.574 -1.43838,1.574 0.47119,0.423 c 0.65866,0.5923 2.6367,1.53906 3.81355,1.825 1.34367,0.32645 4.14867,0.33007 5.56206,0.008 z m 10.5834,-0.313 c 0.83466,-0.63941 1.31063,-1.73882 1.20968,-2.794 -0.29326,-3.06572 -4.59184,-3.82535 -5.82329,-1.029 -0.68984,1.56645 -0.0981,3.33308 1.37766,4.113 0.88304,0.4667 2.4289,0.32834 3.23595,-0.29 z m -239.935694,-3.86 v -3.931 h 2.836577 2.83655 l -0.04662,-2.104 -0.04662,-2.103 -2.748312,-0.03 -2.74831,-0.03 -0.04636,-2.301 -0.04637,-2.3 h 3.226045 3.226017 l 0.276737,-1.966 c 0.152191,-1.0812 0.276631,-2.05997 0.276523,-2.175 -1.58e-4,-0.16383 -1.427229,-0.209 -6.579502,-0.209 h -6.579292 v 10.54 10.541 h 3.081441 3.081441 v -3.932 z m 13.158579,0.269 c -3e-6,-3.17119 0.04399,-3.80654 0.327718,-4.727 0.577273,-1.87294 3.407808,-0.73095 3.420115,-2.369 l 0.74325,0.171 0.09605,-0.52 c 0.05287,-0.28586 0.266875,-1.59114 0.475628,-2.901 0.435627,-2.73305 0.518933,-2.55199 -1.179728,-2.576 -0.694745,-0.01 -1.196786,0.0889 -1.659727,0.326 -0.805878,0.41294 -1.785808,1.47148 -2.154836,2.327 -0.310448,0.71981 -0.311626,0.71745 -0.571756,-0.917 l -0.193054,-1.213 h -2.566717 -2.566689 v 8.031 8.031 h 2.914877 2.914873 z m 28.982194,-1.796 v -5.46 l 0.727623,-0.731 c 0.830251,-0.8341 1.431824,-0.95106 1.844679,-0.359 0.222612,0.31926 0.25929,1.19553 0.25929,6.191 v 5.818 h 3.006874 3.006871 l -0.05036,-6.734 c -0.0495,-6.61932 -0.05686,-6.7488 -0.433262,-7.569 -0.719764,-1.56856 -1.745328,-2.26031 -3.543841,-2.39 -1.684389,-0.12145 -3.11335,0.36194 -4.448913,1.503 -0.300916,0.2571 -0.612885,0.467 -0.693252,0.467 -0.0804,0 -0.196856,-0.30092 -0.258695,-0.669 l -0.112562,-0.67 h -2.650388 -2.650391 v 8.031 8.031 h 2.998158 2.998159 z m 45.305501,0 v -5.46 l 0.72763,-0.731 c 0.83025,-0.83409 1.43181,-0.95106 1.84467,-0.359 0.22263,0.31926 0.25929,1.19553 0.25929,6.191 v 5.818 h 3.00687 3.00686 l -0.0505,-6.734 c -0.0497,-6.61932 -0.0568,-6.7488 -0.43327,-7.569 -0.71977,-1.56856 -1.74532,-2.26031 -3.54383,-2.39 -1.6844,-0.12145 -3.11336,0.36194 -4.44891,1.503 -0.30093,0.2571 -0.61291,0.467 -0.69325,0.467 -0.0805,0 -0.19686,-0.30092 -0.2587,-0.669 l -0.11257,-0.67 h -2.65037 -2.65041 v 8.031 8.031 h 2.99815 2.99816 z m 41.9742,1.193 v -4.267 h 2.41519 2.41517 v 4.267 4.266 h 3.08144 3.08145 v -10.54 -10.541 h -3.07838 -3.07837 l -0.0448,3.89 -0.0447,3.89 -2.37352,0.046 -2.37356,0.046 v -3.936 -3.936 h -3.08144 -3.08145 v 10.54 10.541 h 3.08145 3.08144 v -4.267 z m 48.96992,-1.106 v -5.371 l 0.49671,-0.63 c 0.99535,-1.26239 2.18946,-1.29222 2.39217,-0.06 0.058,0.35311 0.10642,3.06939 0.10744,6.037 l 0.002,5.396 h 2.91486 2.91489 l -0.002,-6.567 c 0,-3.7811 -0.0703,-6.81751 -0.16448,-7.158 -0.3025,-1.09374 -1.07008,-2.09118 -1.93939,-2.521 -0.66193,-0.3273 -1.069,-0.401 -2.22589,-0.401 -1.71769,0 -2.67024,0.32746 -3.91709,1.348 l -0.87966,0.72 -0.18578,-0.741 -0.18575,-0.741 h -2.57935 -2.57936 v 8.03 8.031 h 2.91489 2.91488 v -5.371 z m 62.40697,-8.682 c 0.19896,-3.17464 0.36761,-6.05392 0.37477,-6.399 l 0.013,-0.637 -3.08145,0.009 h -3.08145 l 0.003,0.711 c 0.003,0.3911 0.15012,3.0834 0.33128,5.982 0.18116,2.89861 0.33021,5.47842 0.33126,5.734 l 0.003,0.465 2.37352,-0.046 2.37355,-0.046 0.36175,-5.772 z" />
</svg>
