<?xml version="1.0" encoding="UTF-8" standalone="no"?>
<svg
   xmlns:dc="http://purl.org/dc/elements/1.1/"
   xmlns:cc="http://creativecommons.org/ns#"
   xmlns:rdf="http://www.w3.org/1999/02/22-rdf-syntax-ns#"
   xmlns:svg="http://www.w3.org/2000/svg"
   xmlns="http://www.w3.org/2000/svg"
   id="svg3553"
   version="1.1"
   width="300"
   height="200"
   viewBox="0 0 300 200">
  <defs
     id="defs18" />
  <metadata
     id="metadata3559">
    <rdf:RDF>
      <cc:Work
         rdf:about="">
        <dc:format>image/svg+xml</dc:format>
        <dc:type
           rdf:resource="http://purl.org/dc/dcmitype/StillImage" />
        <dc:title></dc:title>
      </cc:Work>
    </rdf:RDF>
  </metadata>
  <path
     style="fill:#ffffff"
     d="m 0,104 0,-50 150,0 150,0 0,50 0,50 -150,0 -150,0 z m 204.15584,45.85805 c 50.14497,-5.02053 80.63682,-22.73731 92.49707,-42.69294 2.08781,-3.51286 2.7905,-5.22642 2.7905,-9.16593 0,-4.05274 -0.60587,-5.33715 -2.56544,-7.85194 C 293.2413,85.48017 286.91419,82.05907 277.27424,79.5474 266.54609,76.7522 257.2973,75.60859 224.41558,73.01143 181.44077,69.61707 162.18255,66.89815 114.15584,57.44468 93.60158,53.39883 82.48264,54.6525 69.56105,62.47279 c -7.44184,4.5039 -12.755689,11.00433 -16.183381,19.79715 -1.500575,3.84933 -2.728318,7.55872 -2.728318,8.2431 0,2.69097 -4.939168,3.98696 -15.194806,3.98696 -8.632169,0 -11.480243,-0.436 -19.263277,-2.94894 C 7.373324,88.70397 6.963594,88.6598 4.32861,90.27236 c -4.288383,2.6244 -4.858507,9.4056 -1.092943,12.99973 1.722993,1.64454 2.565608,1.81776 5.064936,1.0412 2.348306,-0.72964 4.49142,-0.43699 9.888192,1.35026 6.591385,2.18286 17.3312,4.4902 27.439363,5.89505 l 4.719066,0.65587 1.386163,6.90554 c 3.430311,17.08901 15.499913,29.32562 35.789673,32.17069 22.10936,3.10022 103.86994,-0.15483 116.63278,-1.43265 z"
     id="path3563" />
  <g
     id="layer2"
     transform="translate(0.3,100)"
     style="display:inline">
    <g
       transform="matrix(0.76307777,0,0,1,-48.205874,-950.2357)"
       id="layer1"
       style="fill:#056013;fill-opacity:1">
      <path
         id="path4221"
         d="m 134.66246,980.55574 c -4.25294,-4.66568 -5.95479,-12.70452 -5.95479,-12.70452 l -1.46531,-5.51102 -7.67622,-0.74924 c -14.56117,-1.42125 -26.622729,-4.07483 -34.754523,-5.99304 -5.904604,-1.39284 -9.293683,-1.73308 -11.50326,-0.93838 -4.508803,1.62165 -8.27719,-1.59852 -9.859837,-5.36252 -1.143315,-2.71915 -0.613709,-3.81968 0.638217,-6.24064 1.411506,-2.72956 7.004284,-6.02079 8.578166,-5.04808 0.415881,0.25703 1.545339,0.64833 2.509907,0.86954 0.964567,0.22122 5.803759,1.56816 10.753759,2.99318 12.438405,3.58083 28.553611,2.87564 36.847351,1.99542 3.2717,-0.34723 5.65265,-2.36881 5.65265,-3.10358 0,-3.80935 4.05106,-13.53676 8.96368,-17.64728 15.50964,-12.97731 1.35367,4.6329 6.16887,5.02623 0,0 -6.82919,0.55502 10.92851,-0.47523 8.17528,-0.4743 -23.45665,11.43673 -2.56341,13.95524 27.73337,2.47344 -30.42634,10.10625 1.34353,15.24914 18.23519,2.57917 -13.40254,5.05187 -8.66874,11.03757 12.22973,15.46402 9.00453,11.07917 0.47546,8.29176 -16.06774,-5.25113 -2.80993,12.6975 -10.41401,4.35545 z"
         style="fill:#056013;fill-opacity:1" />
    </g>
  </g>
  <g
     id="layer4"
     style="display:inline"
     transform="matrix(0.99625481,0,0,0.9949823,0.30004946,99.600891)">
    <g
       id="g3455">
      <g
         id="g3448">
        <g
           id="g4268"
           clip-path="url(#clipPath4284)"
           transform="translate(0,-46)">
          <g
             id="g4263">
            <g
               id="g3444">
              <g
                 transform="translate(0,-0.05)"
                 id="g3441">
                <path
                   id="path3346"
                   d="m -1.3049367,55.865282 0.023108,-110.923499 169.1324982,0.01578 133.97969,0.0086 -0.0352,105.594383 0.0352,97.399884 -134.82735,0 -168.2863733,0 z M 61.064847,139.66862 c 1.470987,-0.40966 2.438439,-1.00255 3.449684,-2.11394 1.451634,-1.59543 2.112989,-3.52576 2.113005,-6.16732 1.8e-5,-3.42013 -0.945801,-5.65317 -3.075128,-7.26027 -2.293629,-1.73109 -6.607289,-1.98602 -9.415854,-0.55653 -1.810484,0.92162 -3.35073,3.04689 -3.809491,5.25661 -0.268815,1.2948 -0.230426,4.16572 0.07155,5.34584 0.739356,2.8899 2.573525,4.80111 5.32079,5.54427 1.293592,0.34997 4.002975,0.32529 5.345471,-0.0485 z m -3.413294,-4.0959 c -1.009668,-0.3709 -1.593123,-2.42645 -1.425666,-5.02279 0.159386,-2.47147 0.828851,-3.54161 2.215534,-3.54161 0.539162,0 0.812996,0.10445 1.142953,0.43585 0.704073,0.70721 0.869387,1.45704 0.869387,3.94319 0,1.98984 -0.04623,2.37426 -0.370333,3.07937 -0.275711,0.59984 -0.520732,0.86883 -0.95875,1.05271 -0.668823,0.28066 -0.837461,0.28675 -1.473125,0.0533 z m 36.622339,4.21649 c 1.092309,-0.23076 2.649968,-0.94523 2.646774,-1.214 -0.0018,-0.10908 -0.410217,-0.95619 -0.908727,-1.88253 -0.704166,-1.30849 -0.974846,-1.67087 -1.21329,-1.62441 -0.168805,0.0329 -0.659087,0.0968 -1.089513,0.14165 -0.713533,0.0747 -0.809713,0.0402 -1.089884,-0.38869 -0.267941,-0.41025 -0.314203,-0.91826 -0.361278,-3.9668 l -0.05403,-3.49628 1.556307,-0.0484 1.556309,-0.0485 0.204321,-1.3474 c 0.112382,-0.74111 0.247942,-1.62902 0.30126,-1.97324 l 0.09692,-0.62589 -1.803569,-0.0474 -1.803584,-0.0475 -0.04713,-2.06506 c -0.04639,-2.03407 -0.05267,-2.06391 -0.419189,-1.98519 -0.204651,0.0437 -1.520252,0.20761 -2.923539,0.36375 l -2.551456,0.28387 -0.04751,1.70135 -0.04748,1.70128 -0.964125,0.0504 -0.964135,0.0504 0,2.01269 0,2.01267 1.00605,0 1.006049,0 0.0018,3.91585 c 0.0018,4.24442 0.121307,5.08805 0.909405,6.43885 0.880269,1.50876 2.452656,2.26244 4.739375,2.2716 0.756277,0.003 1.774909,-0.0789 2.263608,-0.18228 z m 13.849518,-0.20375 c 0.74005,-0.2153 1.74836,-0.63744 2.24066,-0.93804 1.69444,-1.03465 1.66669,-0.79003 0.29695,-2.62048 -0.66651,-0.89071 -1.25734,-1.59793 -1.31289,-1.57164 -0.0557,0.0264 -0.60628,0.30263 -1.22382,0.61392 -2.20741,1.11285 -4.40588,0.84442 -5.15438,-0.62937 -0.19029,-0.37463 -0.34597,-0.83578 -0.34597,-1.02472 0,-0.3379 0.0802,-0.34356 4.86258,-0.34356 l 4.86256,0 -0.003,-1.81052 c -0.005,-2.94727 -0.62741,-4.8505 -2.11018,-6.44275 -2.12779,-2.28496 -6.31064,-2.86936 -9.55308,-1.33474 -3.802188,1.79954 -5.360078,7.63139 -3.2927,12.32589 0.757693,1.72054 2.787,3.32472 4.94398,3.90829 1.44569,0.39108 4.20662,0.32802 5.78874,-0.13228 z m -5.55574,-10.006 c -0.12705,-0.20649 0.18155,-1.66336 0.47171,-2.22697 0.32849,-0.63804 0.72628,-0.84942 1.59857,-0.84942 0.93417,0 1.60075,0.65171 1.76041,1.72126 0.21027,1.40852 0.23647,1.38842 -1.87686,1.44208 -1.02911,0.0262 -1.90834,-0.0128 -1.95383,-0.087 z m 36.86091,9.85547 c 0.4611,-0.24042 1.05999,-0.67156 1.33083,-0.95812 0.47034,-0.49753 0.78783,-0.66568 0.74523,-0.39464 -0.0109,0.0694 -0.0109,0.41054 0,0.7579 l 0.0199,0.63158 2.68281,0 2.68278,0 0,-11.28117 0,-11.28113 -0.37726,-0.0793 c -0.20751,-0.0433 -1.28274,-0.16062 -2.3894,-0.26033 -1.10663,-0.0996 -2.29505,-0.22374 -2.64084,-0.27575 l -0.62879,-0.0948 0,3.73415 c 0,2.0538 -0.0566,3.705 -0.12577,3.66942 -2.04447,-1.05246 -3.43056,-1.22142 -5.23645,-0.63809 -2.10273,0.67909 -3.66495,2.50124 -4.36547,5.09171 -0.747,2.76245 -0.39498,6.9009 0.76984,9.05062 0.60033,1.108 1.68793,2.1379 2.68086,2.53875 1.24019,0.50067 3.69105,0.39394 4.85176,-0.21124 z m -1.17373,-3.82779 c -0.60419,-0.24842 -0.97689,-0.84112 -1.19936,-1.90747 -0.42968,-2.05953 -0.17869,-4.82541 0.53749,-5.92336 0.35848,-0.54952 1.33473,-0.99351 1.88148,-0.85566 0.24015,0.0605 0.64877,0.26177 0.90804,0.44721 l 0.47132,0.33709 0,3.40973 0,3.40967 -0.46112,0.44185 c -0.72749,0.69715 -1.46403,0.91796 -2.13785,0.64094 z m 47.89536,4.06148 c 1.47099,-0.40966 2.43844,-1.00255 3.44968,-2.11394 1.45165,-1.59543 2.11295,-3.52576 2.11297,-6.16732 5e-5,-3.42013 -0.94575,-5.65317 -3.07509,-7.26027 -2.29363,-1.73109 -6.60728,-1.98602 -9.41586,-0.55653 -1.81048,0.92162 -3.35074,3.04689 -3.80949,5.25661 -0.26881,1.2948 -0.23041,4.16572 0.0715,5.34584 0.73933,2.8899 2.57355,4.80111 5.32078,5.54427 1.29358,0.34997 4.00299,0.32529 5.34547,-0.0485 z m -3.41328,-4.0959 c -1.00967,-0.3709 -1.59316,-2.42645 -1.4257,-5.02279 0.15941,-2.47147 0.82887,-3.54161 2.21554,-3.54161 0.53916,0 0.81302,0.10445 1.14297,0.43585 0.70406,0.70721 0.86938,1.45704 0.86938,3.94319 0,1.98984 -0.0464,2.37426 -0.37034,3.07937 -0.27573,0.59984 -0.52071,0.86883 -0.95876,1.05271 -0.6688,0.28066 -0.83745,0.28675 -1.47309,0.0533 z m 20.24034,4.00459 c 0.46112,-0.14778 1.07791,-0.4169 1.37066,-0.59802 l 0.53225,-0.32929 -0.95144,-1.86156 c -0.71159,-1.39229 -1.01486,-1.8355 -1.20295,-1.75826 -0.60504,0.24842 -1.76878,0.25146 -2.09594,0.006 -0.31474,-0.23668 -0.33849,-0.48072 -0.38635,-3.97136 l -0.051,-3.71912 1.49275,0 1.49274,0 0.19934,-1.47372 c 0.10962,-0.81053 0.24264,-1.72002 0.29558,-2.02108 l 0.0963,-0.54736 -1.77927,0 -1.77925,0 0,-2.01114 c 0,-1.10616 -0.0566,-2.04242 -0.12573,-2.08064 -0.0691,-0.038 -1.25758,0.0676 -2.64089,0.23553 -1.38329,0.16777 -2.68225,0.30823 -2.88653,0.31218 -0.3556,0.008 -0.37343,0.0807 -0.41917,1.7335 l -0.0476,1.72632 -0.96414,0.0504 -0.96414,0.0503 0,2.01269 0,2.01271 1.00606,0 1.00602,0 0,3.71416 c 0,4.20302 0.2005,5.53778 1.01788,6.77734 0.57117,0.86615 1.49795,1.56171 2.53237,1.90048 0.9429,0.3088 4.08927,0.21306 5.25268,-0.15986 z m 31.35722,-0.12972 c 1.25214,-0.44681 3.09997,-1.53908 3.09997,-1.83239 0,-0.21464 -2.15816,-3.1121 -2.31784,-3.11187 -0.0623,9e-5 -0.64002,0.26537 -1.28366,0.58949 -1.05232,0.52997 -1.30862,0.58933 -2.54472,0.58933 -1.13555,0 -1.45686,-0.0616 -1.84795,-0.35446 -0.52695,-0.39455 -0.96519,-1.09157 -1.12729,-1.79295 l -0.10707,-0.46317 4.94961,0 4.94962,0 0,-1.7415 c 0,-2.84757 -0.67331,-4.90735 -2.13554,-6.5331 -0.69803,-0.77608 -2.61499,-1.76352 -3.88172,-1.99944 -2.11749,-0.39436 -4.50344,-0.0452 -6.09553,0.89196 -0.99937,0.58826 -2.35203,2.09691 -2.86287,3.19291 -1.27781,2.74166 -1.22729,6.5176 0.12299,9.19415 0.86429,1.71316 2.60496,3.03606 4.79219,3.6419 1.47349,0.40818 4.78672,0.26549 6.28981,-0.27086 z m -6.03648,-9.90995 c -0.18732,-0.30447 0.2593,-2.0168 0.64009,-2.45399 0.79354,-0.91116 2.25675,-0.79496 2.8484,0.22612 0.19123,0.33005 0.33018,0.90897 0.34364,1.43163 l 0.0225,0.87751 -1.87313,0.0471 c -1.17403,0.0299 -1.9136,-0.018 -1.98156,-0.12874 z m 19.852,10.17995 c 2.2431,-0.53107 4.06028,-1.93688 4.61407,-3.56955 0.37535,-1.10639 0.3369,-2.8142 -0.0845,-3.75015 -0.71332,-1.58476 -1.76411,-2.29718 -5.00072,-3.39054 -1.98575,-0.67083 -2.53146,-0.99719 -2.53146,-1.51392 0,-0.85786 2.27345,-0.86689 4.08317,-0.0161 l 1.09823,0.51622 1.02278,-1.60188 c 1.13643,-1.77989 1.13662,-1.7717 -0.0564,-2.47371 -1.92019,-1.12989 -5.12678,-1.58581 -7.38811,-1.05043 -2.05425,0.48637 -3.53064,1.49471 -4.2743,2.91927 -0.38819,0.7436 -0.55235,2.19891 -0.35551,3.15142 0.42777,2.06968 1.78573,3.24338 4.99556,4.31785 2.10948,0.70614 2.71895,1.07425 2.71895,1.64215 0,1.037 -2.13387,1.30193 -3.90684,0.48507 -0.53493,-0.24642 -1.18614,-0.60083 -1.44718,-0.7875 l -0.47458,-0.33946 -1.36138,1.51829 c -0.7488,0.83506 -1.36142,1.59124 -1.36142,1.68036 0,0.23196 1.29283,1.15274 2.17978,1.55243 2.12165,0.95619 5.24638,1.25095 7.52973,0.71028 z m 14.76419,-0.004 c 1.10624,-0.25271 2.7227,-1.08289 3.4641,-1.77898 1.17929,-1.1073 1.68406,-3.30915 1.16764,-5.09349 -0.51437,-1.77725 -1.80656,-2.75448 -5.04411,-3.81471 -2.24355,-0.73474 -2.59896,-0.92795 -2.59896,-1.41308 0,-0.66535 0.37927,-0.82649 1.73905,-0.7388 0.9017,0.058 1.5233,0.2161 2.31523,0.58831 l 1.08262,0.50889 1.04752,-1.61691 1.04752,-1.6169 -0.38771,-0.31535 c -1.46345,-1.19031 -4.06562,-1.88907 -6.49415,-1.74387 -2.84158,0.16986 -4.76093,1.15941 -5.78294,2.98148 -1.05384,1.87881 -0.53886,4.60139 1.12668,5.95615 0.94445,0.76829 1.46668,1.01763 3.58757,1.71288 1.89165,0.62014 2.34148,0.85721 2.39992,1.26468 0.0914,0.63681 -0.0376,0.86592 -0.62661,1.11307 -1.04755,0.43966 -2.83371,0.0433 -4.35675,-0.96662 l -0.70306,-0.46626 -1.44804,1.58452 -1.44797,1.5845 0.47433,0.42652 c 0.66305,0.59625 2.65428,1.54892 3.83898,1.83676 1.35262,0.32863 4.17632,0.33227 5.59914,0.008 z m 10.65395,-0.31536 c 0.84023,-0.64367 1.31937,-1.75044 1.21775,-2.81265 -0.29522,-3.08616 -4.62246,-3.85069 -5.86212,-1.0357 -0.69444,1.57689 -0.0987,3.35555 1.38685,4.14067 0.88893,0.46981 2.44509,0.33015 3.25752,-0.29232 z m -241.535258,-3.88529 0,-3.95797 2.855488,0 2.85546,0 -0.04693,-2.11757 -0.04693,-2.11754 -2.766634,-0.0302 -2.766632,-0.0299 -0.04667,-2.31578 -0.04668,-2.31585 3.247552,0 3.247524,0 0.278582,-1.97897 c 0.153216,-1.08841 0.278475,-2.07369 0.278366,-2.18948 -1.59e-4,-0.16492 -1.436744,-0.21053 -6.623365,-0.21053 l -6.623154,0 0,10.61065 0,10.61068 3.101984,0 3.101984,0 0,-3.95793 z m 13.246303,0.27037 c 0,-3.19233 0.04428,-3.83135 0.329903,-4.75795 0.581121,-1.88542 1.835813,-2.75471 3.442915,-2.38528 l 0.748205,0.17199 0.09669,-0.52334 c 0.05322,-0.28777 0.268654,-1.60208 0.478799,-2.92067 0.438531,-2.75127 0.522392,-2.56817 -1.187593,-2.59234 -0.699377,-0.0101 -1.204765,0.0895 -1.670792,0.32819 -0.811251,0.4157 -1.797714,1.48073 -2.169202,2.34195 -0.312517,0.72461 -0.313672,0.72277 -0.575567,-0.92258 l -0.194341,-1.22105 -2.583829,0 -2.5838,0 0,8.08432 0,8.08432 2.934309,0 2.934306,0 z m 29.175408,-1.80833 0,-5.49595 0.732474,-0.73573 c 0.83586,-0.83959 1.441369,-0.95744 1.856977,-0.36144 0.224096,0.32139 0.261018,1.20291 0.261018,6.23168 l 0,5.85733 3.02692,0 3.026917,0 -0.0507,-6.779 c -0.04981,-6.66345 -0.05724,-6.79341 -0.43615,-7.61908 -0.724563,-1.57901 -1.756964,-2.27524 -3.567467,-2.40579 -1.695618,-0.12226 -3.134105,0.36339 -4.478572,1.51205 -0.302922,0.25882 -0.616971,0.47055 -0.697874,0.47055 -0.08094,0 -0.198099,-0.30315 -0.260419,-0.67367 l -0.113313,-0.6737 -2.668057,0 -2.66806,0 0,8.08432 0,8.08432 3.018145,0 3.018147,0 z m 45.607537,0 0,-5.49595 0.73248,-0.73573 c 0.83584,-0.83959 1.44135,-0.95744 1.85697,-0.36144 0.22411,0.32139 0.26101,1.20291 0.26101,6.23168 l 0,5.85733 3.02692,0 3.02691,0 -0.0508,-6.779 c -0.05,-6.66345 -0.0572,-6.79341 -0.43616,-7.61908 -0.72457,-1.57901 -1.75696,-2.27524 -3.56746,-2.40579 -1.69562,-0.12226 -3.13411,0.36339 -4.47856,1.51205 -0.30294,0.25882 -0.617,0.47055 -0.69788,0.47055 -0.081,0 -0.19811,-0.30315 -0.26042,-0.67367 l -0.11332,-0.6737 -2.66804,0 -2.66808,0 0,8.08432 0,8.08432 3.01814,0 3.01815,0 z m 42.25402,1.20112 0,-4.29484 2.4313,0 2.43127,0 0,4.29484 0,4.29477 3.10198,0 3.10199,0 0,-10.61066 0,-10.61067 -3.0989,0 -3.09889,0 -0.0451,3.91584 -0.045,3.91584 -2.38934,0.0466 -2.38939,0.0464 0,-3.96253 0,-3.96258 -3.10198,0 -3.10199,0 0,10.61065 0,10.61068 3.10199,0 3.10198,0 0,-4.29477 z m 49.29639,-1.11264 0,-5.4074 0.50002,-0.63412 c 1.00199,-1.2708 2.20406,-1.30103 2.40812,-0.0606 0.0584,0.35547 0.10713,3.09056 0.10816,6.07795 l 0.002,5.43167 2.93429,0 2.93432,0 -0.002,-6.61062 c 0,-3.80631 -0.0708,-6.86315 -0.16558,-7.20591 -0.30451,-1.10103 -1.07721,-2.10566 -1.95232,-2.53835 -0.66634,-0.32948 -1.07612,-0.40324 -2.24072,-0.40324 -1.72915,0 -2.68784,0.32992 -3.94321,1.357 l -0.88552,0.72447 -0.18702,-0.74601 -0.18699,-0.74599 -2.59655,0 -2.59655,0 0,8.08433 0,8.08432 2.93432,0 2.93431,0 0,-5.40741 z m 62.82302,-8.74015 c 0.20028,-3.1958 0.37006,-6.09483 0.37726,-6.44221 l 0.0131,-0.63156 -3.10199,0 -3.10199,0 0.003,0.71577 c 0.003,0.3937 0.15113,3.10322 0.33349,6.02114 0.18237,2.91793 0.33241,5.51587 0.33347,5.77315 l 0.003,0.46775 2.38935,-0.0465 2.38937,-0.0465 0.36416,-5.81061 z M 142.78206,99.219281 c 18.91236,-0.397463 40.63931,-1.188494 53.40442,-1.944356 5.68044,-0.336354 7.7789,-0.512969 12.07257,-1.016086 25.44073,-2.981006 46.84722,-9.346011 63.38121,-18.845786 3.0955,-1.778568 8.55297,-5.45927 10.95618,-7.389259 6.36335,-5.110305 11.07694,-10.318849 14.65679,-16.195834 2.35604,-3.867882 2.91094,-5.664549 2.91288,-9.431713 0,-1.389485 -0.0791,-2.943195 -0.17746,-3.452679 -0.55529,-2.876962 -3.69379,-6.735726 -7.55129,-9.28429 -6.88773,-4.550559 -18.53094,-7.732352 -35.30112,-9.646917 -7.465,-0.852253 -15.34942,-1.561992 -34.7925,-3.131977 C 182.04376,15.626248 161.31841,12.707877 118.30155,4.2300335 102.73495,1.1621399 95.94444,0.53467963 88.270134,1.455071 82.792849,2.1119675 78.333452,3.5121006 72.945529,6.2665917 c -4.241338,2.168324 -7.23151,4.1732563 -9.793393,6.5665373 -0.65412,0.611069 -1.491116,1.249775 -1.86,1.419346 -0.946627,0.435144 -5.179352,4.736662 -6.283834,6.385949 -2.497093,3.728801 -5.537237,12.223423 -5.537237,15.471859 0,1.220436 -0.96087,2.395907 -2.637805,3.226956 -1.721603,0.853186 -7.768896,1.372188 -14.129669,1.212696 C 25.312353,40.364598 21.363466,39.616159 14.762391,37.149532 12.871851,36.443096 10.457604,35.564195 9.39739,35.196435 8.3371496,34.828656 7.2198994,34.379708 6.9145971,34.19877 6.1667409,33.755552 5.6089607,33.784441 4.5350108,34.322001 c -1.0367124,0.518904 -3.1117214,2.427916 -3.84074407,3.533462 -0.27254517,0.413297 -0.73720552,1.409833 -1.03260804,2.214521 -0.42769207,1.165116 -0.53688183,1.720311 -0.53621072,2.726244 0.002672,2.28516 1.15786799,5.029902 2.86176503,6.792644 1.4907762,1.542304 3.0083534,1.952403 4.810629,1.299997 2.2462511,-0.813102 4.236671,-0.626318 9.126148,0.856417 11.357373,3.444131 18.853402,5.073167 29.481807,6.407007 2.362793,0.296527 3.078428,0.442603 3.13772,0.640469 0.04231,0.14098 0.384227,1.810035 0.759902,3.709006 1.19631,6.047167 2.138936,9.195274 3.685192,12.307856 0.806719,1.62388 2.219156,3.725868 2.855139,4.249021 0.247167,0.203324 0.912581,1.056629 1.478679,1.896235 4.754871,7.052125 11.686947,12.139019 20.485669,15.0328 6.135401,2.017854 11.995423,2.793199 24.312842,3.216832 5.64743,0.194233 31.67175,0.203691 40.66112,0.0147 z m -10.14431,-106.3302087 3.60501,-0.3687712 0.0444,-4.7630231 0.0445,-4.763016 0.62618,0.50341 c 2.06131,1.657253 5.05672,1.890089 7.69495,0.598151 2.48216,-1.215479 4.26343,-4.043942 4.9291,-7.826859 0.3044,-1.729665 0.21692,-5.541371 -0.17003,-7.410629 -0.34403,-1.661895 -1.32289,-3.893239 -2.08079,-4.743244 -1.35125,-1.515458 -3.26647,-2.333424 -5.44713,-2.326426 -2.22269,0.0072 -3.6996,0.546806 -5.33337,1.948805 l -0.87319,0.749309 -0.10717,-0.803734 c -0.0589,-0.44206 -0.12962,-0.879536 -0.15699,-0.972166 -0.0318,-0.107397 -1.33339,-0.15081 -3.59252,-0.119817 l -3.54269,0.04858 0,15.320029 0,15.3200322 0.37726,-0.010954 c 0.20752,-0.00628 1.99955,-0.1768949 3.98231,-0.3797122 z m 5.29745,-13.7638613 c -0.268,-0.08056 -0.7396,-0.392043 -1.04797,-0.692248 l -0.56065,-0.545837 0,-4.229038 0,-4.229036 0.42599,-0.579941 c 1.2707,-1.730063 3.44356,-1.792359 4.24464,-0.12169 0.73636,1.535628 0.87825,5.955569 0.25854,8.053344 -0.3595,1.216954 -0.80893,1.818462 -1.64292,2.198904 -0.75569,0.344722 -0.95668,0.362158 -1.67763,0.145542 z m 19.22498,13.7151128 3.14388,-0.3011138 0,-4.766655 c 0,-2.621656 0.0421,-4.76665 0.0937,-4.76665 0.0517,0 0.3722,0.223917 0.71261,0.497587 2.00293,1.610212 4.96731,1.882023 7.52148,0.689675 2.13664,-0.997426 4.03318,-3.661622 4.86171,-6.829449 0.47624,-1.820813 0.4253,-7.224934 -0.0856,-9.094867 -0.58038,-2.123832 -1.23223,-3.349047 -2.41163,-4.532744 -1.36542,-1.370401 -2.43003,-1.805924 -4.6748,-1.91241 -2.42839,-0.115204 -4.11698,0.473255 -5.78221,2.015063 l -0.70823,0.655729 -0.0988,-0.512855 c -0.0545,-0.282068 -0.13839,-0.721272 -0.18676,-0.976019 l -0.0879,-0.463159 -3.51705,0 -3.51706,0 0,15.392097 0,15.3920974 0.79647,-0.092603 c 0.43804,-0.050931 2.21121,-0.2281135 3.94035,-0.3937253 z m 4.69153,-13.7922468 c -0.30155,-0.13163 -0.77313,-0.48661 -1.04795,-0.788851 l -0.4997,-0.549517 0,-4.063566 0,-4.063571 0.5008,-0.694389 c 0.60631,-0.840735 1.59089,-1.377236 2.52746,-1.377236 0.56159,0 0.7997,0.106028 1.24692,0.555278 0.78809,0.791589 0.9571,1.534584 1.04553,4.596394 0.11348,3.930276 -0.39334,5.64489 -1.86735,6.317307 -0.81906,0.373642 -1.17653,0.386424 -1.90571,0.06818 z m -41.95725,5.453659 c 1.42615,-0.355564 3.99121,-1.571609 4.85112,-2.299819 l 0.57542,-0.487288 -1.47637,-2.00703 c -0.81199,-1.103871 -1.52905,-2.065511 -1.59344,-2.136977 -0.0643,-0.07151 -0.86624,0.255367 -1.78186,0.726308 -1.38892,0.714383 -1.86067,0.872051 -2.84724,0.951594 -2.56644,0.206914 -4.20053,-0.860324 -4.53511,-2.961877 l -0.11005,-0.691372 6.46932,0 6.46932,0 0.11472,-0.614438 c 0.17533,-0.938662 -0.0444,-4.565202 -0.34543,-5.701443 -0.76847,-2.900594 -2.4699,-5.132064 -4.8101,-6.308604 -1.88942,-0.949909 -3.40154,-1.24381 -5.89812,-1.14637 -2.27448,0.08876 -3.79725,0.527717 -5.39417,1.554826 -1.22301,0.786623 -2.6601,2.435197 -3.34412,3.836236 -0.98848,2.024665 -1.31393,3.56287 -1.30975,6.190286 0.005,2.574176 0.33395,4.185013 1.23625,6.03793 0.63364,1.301217 2.38148,3.207473 3.56228,3.885167 2.73614,1.570362 6.72664,2.030689 10.16733,1.172871 z m -6.93437,-14.253904 c 0.28069,-2.211449 1.23957,-3.411161 2.72538,-3.409951 1.54065,8.99e-4 2.34819,0.993619 2.49591,3.067184 l 0.0815,1.142772 -2.70212,0 -2.70211,0 0.10155,-0.800005 z m 77.44161,14.271314 c 1.65131,-0.383501 3.006,-0.976272 4.48332,-1.961768 l 1.12985,-0.753686 -0.94948,-1.293662 c -1.87725,-2.557711 -2.28301,-3.073015 -2.3827,-3.025818 -0.0558,0.02631 -0.81803,0.409129 -1.69413,0.850586 -1.82779,0.92101 -3.0178,1.129604 -4.58268,0.803275 -1.50544,-0.313911 -2.41749,-1.291546 -2.71595,-2.911209 l -0.1164,-0.631589 6.55797,0 6.55798,0 0,-2.174695 c 0,-4.279408 -0.93358,-6.918339 -3.23246,-9.137185 -0.99774,-0.96302 -2.87945,-1.92032 -4.41837,-2.247817 -1.68042,-0.357616 -4.26162,-0.321452 -5.83087,0.08165 -4.84485,1.24463 -7.63552,5.322981 -7.64283,11.169289 -0.003,2.474676 0.32791,4.152443 1.18113,5.987163 2.10748,4.531767 7.61665,6.647955 13.65562,5.245434 z m -6.77322,-14.330359 c 0.38511,-2.447088 1.11412,-3.352288 2.69877,-3.350906 0.89128,8.11e-4 1.69774,0.470796 2.08123,1.212989 0.15807,0.305868 0.3221,1.102748 0.36555,1.775903 l 0.0788,1.221064 -2.67978,0 -2.6798,0 z m -87.543836,8.774953 0,-5.221125 3.772682,0 3.772674,0 0,-2.947413 0,-2.947408 -3.772674,0 -3.772682,0 0,-3.031623 0,-3.031622 4.359546,0 c 4.03755,0 4.36006,-0.02172 4.36641,-0.294733 0.004,-0.162113 0.18095,-1.450552 0.39373,-2.863201 l 0.38683,-2.568464 -8.861293,0 -8.861282,0 0,14.063362 0,14.063357 4.108029,0 4.10803,0 z m 110.833016,0.186168 c 0,-5.580399 0.10442,-6.29834 1.15904,-7.967896 0.76225,-1.206704 1.55715,-1.545581 3.38043,-1.441156 l 1.45132,0.08308 0.62522,-3.779486 c 0.34386,-2.078708 0.58999,-3.814849 0.54694,-3.858072 -0.16711,-0.167887 -1.91917,-0.363892 -2.63574,-0.294862 -1.66956,0.160816 -3.5535,1.650621 -4.44374,3.514096 l -0.48275,1.01054 -0.13714,-0.842118 c -0.0752,-0.46317 -0.21551,-1.334759 -0.31131,-1.936871 l -0.17415,-1.094749 -3.51327,0.04859 -3.51327,0.04858 0,10.772594 0,10.772596 4.02422,0 4.02419,0 0,-5.034959 z"
                   style="fill:#ffffff" />
              </g>
            </g>
          </g>
        </g>
      </g>
    </g>
  </g>
</svg>
