<?xml version="1.0" encoding="UTF-8" standalone="no"?>
<svg
   xmlns:dc="http://purl.org/dc/elements/1.1/"
   xmlns:cc="http://creativecommons.org/ns#"
   xmlns:rdf="http://www.w3.org/1999/02/22-rdf-syntax-ns#"
   xmlns:svg="http://www.w3.org/2000/svg"
   xmlns="http://www.w3.org/2000/svg"
   id="svg3553"
   version="1.1"
   width="300"
   height="200"
   viewBox="0 0 300 200">
  <metadata
     id="metadata3559">
    <rdf:RDF>
      <cc:Work
         rdf:about="">
        <dc:format>image/svg+xml</dc:format>
        <dc:type
           rdf:resource="http://purl.org/dc/dcmitype/StillImage" />
        <dc:title></dc:title>
      </cc:Work>
    </rdf:RDF>
  </metadata>
  <path
     style="fill:#ffffff"
     d="m 0,104 0,-50 150,0 150,0 0,50 0,50 -150,0 -150,0 z m 204.15584,45.85805 c 50.14497,-5.02053 80.63682,-22.73731 92.49707,-42.69294 2.08781,-3.51286 2.7905,-5.22642 2.7905,-9.16593 0,-4.05274 -0.60587,-5.33715 -2.56544,-7.85194 C 293.2413,85.48017 286.91419,82.05907 277.27424,79.5474 266.54609,76.7522 257.2973,75.60859 224.41558,73.01143 181.44077,69.61707 162.18255,66.89815 114.15584,57.44468 93.60158,53.39883 82.48264,54.6525 69.56105,62.47279 c -7.44184,4.5039 -12.755689,11.00433 -16.183381,19.79715 -1.500575,3.84933 -2.728318,7.55872 -2.728318,8.2431 0,2.69097 -4.939168,3.98696 -15.194806,3.98696 -8.632169,0 -11.480243,-0.436 -19.263277,-2.94894 C 7.373324,88.70397 6.963594,88.6598 4.32861,90.27236 c -4.288383,2.6244 -4.858507,9.4056 -1.092943,12.99973 1.722993,1.64454 2.565608,1.81776 5.064936,1.0412 2.348306,-0.72964 4.49142,-0.43699 9.888192,1.35026 6.591385,2.18286 17.3312,4.4902 27.439363,5.89505 l 4.719066,0.65587 1.386163,6.90554 c 3.430311,17.08901 15.499913,29.32562 35.789673,32.17069 22.10936,3.10022 103.86994,-0.15483 116.63278,-1.43265 z"
     id="path3563" />
  <g
     id="layer2"
     transform="translate(0.3,100)"
     style="display:inline">
    <g
       transform="matrix(0.76307777,0,0,1,-48.205874,-950.2357)"
       id="layer1"
       style="fill:#056013;fill-opacity:1">
      <path
         id="path4221"
         d="m 134.66246,980.55574 c -4.25294,-4.66568 -5.95479,-12.70452 -5.95479,-12.70452 l -1.46531,-5.51102 -7.67622,-0.74924 c -14.56117,-1.42125 -26.622729,-4.07483 -34.754523,-5.99304 -5.904604,-1.39284 -9.293683,-1.73308 -11.50326,-0.93838 -4.508803,1.62165 -8.27719,-1.59852 -9.859837,-5.36252 -1.143315,-2.71915 -0.613709,-3.81968 0.638217,-6.24064 1.411506,-2.72956 7.004284,-6.02079 8.578166,-5.04808 0.415881,0.25703 1.545339,0.64833 2.509907,0.86954 0.964567,0.22122 5.803759,1.56816 10.753759,2.99318 12.438405,3.58083 28.553611,2.87564 36.847351,1.99542 3.2717,-0.34723 5.65265,-2.36881 5.65265,-3.10358 0,-3.80935 4.05106,-13.53676 8.96368,-17.64728 15.50964,-12.97731 1.35367,4.6329 6.16887,5.02623 0,0 -6.82919,0.55502 10.92851,-0.47523 8.17528,-0.4743 -23.45665,11.43673 -2.56341,13.95524 27.73337,2.47344 -30.42634,10.10625 1.34353,15.24914 18.23519,2.57917 -13.40254,5.05187 -8.66874,11.03757 12.22973,15.46402 9.00453,11.07917 0.47546,8.29176 -16.06774,-5.25113 -2.80993,12.6975 -10.41401,4.35545 z"
         style="fill:#056013;fill-opacity:1" />
    </g>
  </g>
  <g
     id="layer4"
     style="display:inline"
     transform="translate(0,100)">
    <g
       id="g3455">
      <g
         id="g3448">
        <g
           id="g4268"
           clip-path="url(#clipPath4284)"
           transform="translate(0,-46)">
          <g
             id="g4263">
            <g
               id="g3444">
              <g
                 transform="translate(0,-0.05)"
                 id="g3441">
                <path
                   id="path3346"
                   d="m -0.3084914,55.489 0.4,-109.504321 167.8093914,-0.4 132.60941,0.4 0.4,104.704321 -0.4,95.90432 -133.40941,0 -167.4093914,0 z m 62.0005304,82.98004 c 1.463039,-0.40566 2.425265,-0.9927 3.431045,-2.09319 1.443792,-1.57973 2.101573,-3.49109 2.101589,-6.10674 1.8e-5,-3.38651 -0.940691,-5.59763 -3.058512,-7.1889 -2.281237,-1.7141 -6.571591,-1.96654 -9.364981,-0.55105 -1.800702,0.91252 -3.332627,3.01694 -3.788908,5.20494 -0.267363,1.28209 -0.229181,4.1248 0.07117,5.29334 0.73536,2.86149 2.55962,4.75393 5.292042,5.48979 1.286602,0.34651 3.981346,0.32209 5.316589,-0.0482 z m -3.394852,-4.05567 c -1.004213,-0.36723 -1.584516,-2.40261 -1.417962,-4.97344 0.158524,-2.44717 0.824372,-3.50681 2.203564,-3.50681 0.536248,0 0.808602,0.10341 1.136776,0.43157 0.700269,0.70025 0.864689,1.44271 0.864689,3.90442 0,1.97031 -0.04599,2.35097 -0.368331,3.04916 -0.274221,0.59392 -0.517918,0.86028 -0.953571,1.04232 -0.665208,0.27793 -0.832937,0.28397 -1.465165,0.0527 z m 36.42447,4.17507 c 1.086408,-0.2285 2.63565,-0.93594 2.632474,-1.20206 -0.0018,-0.10802 -0.408,-0.94682 -0.903816,-1.86405 -0.700364,-1.29565 -0.96958,-1.65445 -1.206737,-1.60844 -0.167893,0.0326 -0.655524,0.0957 -1.083625,0.14026 -0.709679,0.0739 -0.805338,0.0399 -1.083996,-0.38489 -0.266493,-0.40622 -0.312505,-0.90922 -0.359325,-3.92782 l -0.05373,-3.46194 1.547899,-0.0481 1.547899,-0.0481 0.203218,-1.33416 c 0.111775,-0.73379 0.246603,-1.61301 0.299633,-1.95386 l 0.0964,-0.61975 -1.793825,-0.0472 -1.793838,-0.0472 -0.04687,-2.0448 c -0.04615,-2.01409 -0.05237,-2.04362 -0.416923,-1.9657 -0.203547,0.0434 -1.512038,0.20559 -2.907744,0.3602 l -2.53767,0.2811 -0.04725,1.68461 -0.04722,1.68459 -0.958915,0.05 -0.958926,0.0501 0,1.9929 0,1.9929 1.000614,0 1.000613,0 0.0018,3.87737 c 0.0018,4.20273 0.12065,5.03808 0.904491,6.37559 0.875513,1.49396 2.439404,2.24022 4.713767,2.24927 0.752191,0.003 1.765319,-0.0782 2.251379,-0.18046 z m 13.774683,-0.20174 c 0.73605,-0.2132 1.73891,-0.63117 2.22856,-0.92883 1.68528,-1.02449 1.6577,-0.78225 0.29535,-2.59473 -0.66291,-0.88197 -1.25054,-1.58225 -1.3058,-1.5562 -0.0553,0.0261 -0.603,0.29963 -1.21721,0.60788 -2.19548,1.10191 -4.38207,0.83612 -5.12653,-0.62317 -0.18926,-0.37098 -0.34411,-0.82758 -0.34411,-1.01467 0,-0.33458 0.0797,-0.34017 4.83631,-0.34017 l 4.83629,0 -0.003,-1.79277 c -0.005,-2.91827 -0.62402,-4.8028 -2.09878,-6.37944 -2.1163,-2.26249 -6.27655,-2.84116 -9.50147,-1.32162 -3.781638,1.78186 -5.33111,7.5564 -3.274901,12.20479 0.753599,1.70364 2.771941,3.29207 4.917261,3.86991 1.43788,0.38725 4.18389,0.32479 5.75748,-0.13098 z m -5.52571,-9.90772 c -0.12637,-0.20446 0.18057,-1.647 0.46916,-2.20508 0.32671,-0.63178 0.72235,-0.84109 1.58992,-0.84109 0.92913,0 1.5921,0.64535 1.75091,1.70438 0.20914,1.39468 0.23518,1.37477 -1.86672,1.42788 -1.02355,0.0258 -1.89803,-0.0128 -1.94327,-0.0861 z m 36.66174,9.75867 c 0.45861,-0.23806 1.05426,-0.66496 1.32365,-0.9487 0.46779,-0.49267 0.78357,-0.65915 0.74121,-0.39078 -0.0109,0.0687 -0.0109,0.40651 0,0.75045 l 0.0197,0.62538 2.66831,0 2.66829,0 0,-11.17031 0,-11.17033 -0.37523,-0.0783 c -0.20638,-0.043 -1.2758,-0.15907 -2.37647,-0.25778 -1.10066,-0.0987 -2.28265,-0.22155 -2.62659,-0.27304 l -0.62539,-0.0937 0,3.69745 c 0,2.03363 -0.0563,3.66863 -0.12509,3.63339 -2.03342,-1.04214 -3.41202,-1.20941 -5.20815,-0.63184 -2.09137,0.67244 -3.64515,2.47669 -4.34187,5.0417 -0.74298,2.73529 -0.39287,6.83309 0.76566,8.96168 0.5971,1.09711 1.67882,2.11692 2.66639,2.51382 1.23348,0.49575 3.67111,0.39008 4.82553,-0.20915 z m -1.16739,-3.7902 c -0.60092,-0.24598 -0.97162,-0.83287 -1.19288,-1.88873 -0.42736,-2.03929 -0.17773,-4.778 0.5346,-5.86516 0.35654,-0.54412 1.32751,-0.98376 1.87131,-0.84725 0.23886,0.06 0.64526,0.25921 0.90312,0.4428 l 0.46878,0.3338 0,3.37621 0,3.37619 -0.45862,0.43752 c -0.72356,0.69028 -1.45613,0.90891 -2.12631,0.63462 z m 47.63659,4.02159 c 1.46304,-0.40566 2.42526,-0.9927 3.43104,-2.09319 1.44381,-1.57973 2.10155,-3.49109 2.10157,-6.10674 5e-5,-3.38651 -0.94065,-5.59763 -3.05849,-7.1889 -2.28123,-1.7141 -6.57159,-1.96654 -9.36498,-0.55105 -1.80071,0.91252 -3.33264,3.01694 -3.78892,5.20494 -0.26736,1.28209 -0.22916,4.1248 0.0712,5.29334 0.73535,2.86149 2.55965,4.75393 5.29204,5.48979 1.28659,0.34651 3.98136,0.32209 5.31659,-0.0482 z m -3.39485,-4.05567 c -1.0042,-0.36723 -1.58455,-2.40261 -1.41798,-4.97344 0.15855,-2.44717 0.82438,-3.50681 2.20356,-3.50681 0.53625,0 0.80863,0.10341 1.13681,0.43157 0.70026,0.70025 0.86467,1.44271 0.86467,3.90442 0,1.97031 -0.0461,2.35097 -0.36833,3.04916 -0.27424,0.59392 -0.51792,0.86028 -0.95358,1.04232 -0.66521,0.27793 -0.83293,0.28397 -1.46515,0.0527 z m 20.131,3.96526 c 0.45863,-0.14635 1.07209,-0.41281 1.36325,-0.59215 l 0.52937,-0.32605 -0.94628,-1.84327 c -0.70776,-1.37863 -1.00938,-1.81748 -1.19647,-1.741 -0.60177,0.24599 -1.75921,0.24899 -2.08461,0.006 -0.31305,-0.23433 -0.33666,-0.47597 -0.38426,-3.9323 l -0.0506,-3.68262 1.48467,0 1.48468,0 0.19826,-1.45922 c 0.10904,-0.80258 0.24134,-1.70312 0.29398,-2.00124 l 0.0958,-0.54198 -1.76965,0 -1.76963,0 0,-1.99139 c 0,-1.09527 -0.0563,-2.02234 -0.12507,-2.06016 -0.0688,-0.0377 -1.25077,0.067 -2.62661,0.23321 -1.37583,0.1661 -2.66776,0.30521 -2.87092,0.30911 -0.3537,0.008 -0.37142,0.0798 -0.41693,1.71647 l -0.0474,1.70937 -0.95893,0.05 -0.95892,0.05 0,1.9929 0,1.99292 1.00063,0 1.00058,0 0,3.67769 c 0,4.16173 0.19941,5.4834 1.01238,6.71075 0.56808,0.85765 1.48986,1.54638 2.51868,1.88181 0.93782,0.30578 4.06718,0.21095 5.22431,-0.15828 z m 31.18779,-0.12846 c 1.24538,-0.44242 3.08322,-1.52395 3.08322,-1.81439 0,-0.21252 -2.14649,-3.08151 -2.30532,-3.08128 -0.062,8e-5 -0.63656,0.26275 -1.27672,0.58369 -1.04662,0.52476 -1.30154,0.58353 -2.53097,0.58353 -1.12942,0 -1.44899,-0.061 -1.83797,-0.35096 -0.52409,-0.39068 -0.95996,-1.08087 -1.1212,-1.77535 l -0.10648,-0.4586 4.92287,0 4.92286,0 0,-1.7244 c 0,-2.8196 -0.66966,-4.85913 -2.124,-6.46893 -0.69425,-0.76845 -2.60086,-1.74618 -3.86074,-1.97978 -2.10604,-0.3905 -4.47911,-0.0449 -6.06259,0.88318 -0.99398,0.5825 -2.33932,2.0763 -2.8474,3.16156 -1.27091,2.71471 -1.22067,6.45356 0.12232,9.1038 0.85961,1.69635 2.59088,3.00623 4.7663,3.60616 1.46552,0.40416 4.76086,0.26287 6.25582,-0.26823 z m -6.00386,-9.81258 c -0.18632,-0.30148 0.25789,-1.997 0.63662,-2.4299 0.78926,-0.90218 2.24457,-0.78713 2.83302,0.22393 0.19019,0.3268 0.3284,0.90004 0.34178,1.41756 l 0.0223,0.86887 -1.86301,0.0469 c -1.16768,0.0294 -1.90325,-0.018 -1.97085,-0.12746 z m 19.74475,10.07995 c 2.23097,-0.52589 4.03832,-1.91788 4.58913,-3.53447 0.37332,-1.09555 0.33507,-2.7866 -0.084,-3.71334 -0.70948,-1.56918 -1.75458,-2.27461 -4.9737,-3.35724 -1.97504,-0.66424 -2.51779,-0.98738 -2.51779,-1.49903 0,-0.84943 2.26116,-0.85839 4.06111,-0.0161 l 1.09229,0.51115 1.01726,-1.58614 c 1.13028,-1.76239 1.13047,-1.75429 -0.0561,-2.44939 -1.90981,-1.1188 -5.09907,-1.57024 -7.34818,-1.0401 -2.04315,0.48158 -3.51156,1.48001 -4.25121,2.89056 -0.3861,0.73631 -0.54937,2.17731 -0.3536,3.12045 0.42546,2.04935 1.77608,3.21155 4.96858,4.27546 2.09808,0.6992 2.70426,1.06367 2.70426,1.62602 0,1.02678 -2.12234,1.28914 -3.88573,0.48031 -0.53204,-0.24401 -1.17974,-0.59491 -1.43937,-0.77977 l -0.47202,-0.33614 -1.35402,1.50339 c -0.74475,0.82686 -1.35406,1.57559 -1.35406,1.66385 0,0.22968 1.28585,1.14141 2.168,1.53718 2.11019,0.9468 5.21804,1.23864 7.48906,0.70331 z m 14.6844,-0.004 c 1.10027,-0.25026 2.708,-1.07227 3.44538,-1.76153 1.17293,-1.09642 1.67497,-3.27665 1.16134,-5.04344 -0.51159,-1.75978 -1.7968,-2.72743 -5.01686,-3.77724 -2.23143,-0.7275 -2.58492,-0.91883 -2.58492,-1.3992 0,-0.6588 0.37723,-0.81837 1.72966,-0.73154 0.89683,0.0575 1.51508,0.21396 2.30274,0.58252 l 1.07674,0.5039 1.04187,-1.60102 1.04185,-1.60102 -0.3856,-0.31224 c -1.45555,-1.17863 -4.04365,-1.87052 -6.45907,-1.72675 -2.82623,0.16819 -4.7352,1.14803 -5.75169,2.95217 -1.04816,1.86038 -0.53594,4.55619 1.12058,5.89767 0.93936,0.76074 1.45876,1.0076 3.5682,1.69604 1.88144,0.61404 2.32883,0.84878 2.38695,1.25229 0.0909,0.63052 -0.0374,0.85737 -0.62322,1.10209 -1.04188,0.43535 -2.81841,0.043 -4.33321,-0.95712 l -0.69927,-0.46168 -1.4402,1.56896 -1.44016,1.56892 0.47177,0.42235 c 0.65948,0.59037 2.63993,1.5337 3.81824,1.81871 1.34532,0.3254 4.15375,0.329 5.56888,0.008 z m 10.59639,-0.31227 c 0.8357,-0.63737 1.31224,-1.73326 1.21118,-2.78502 -0.29363,-3.05584 -4.59748,-3.81287 -5.83045,-1.02553 -0.69069,1.5614 -0.0982,3.32259 1.37936,4.09996 0.88412,0.46519 2.43187,0.32692 3.23991,-0.28941 z m -240.230248,-3.84715 0,-3.91907 2.840061,0 2.840031,0 -0.04668,-2.09676 -0.04667,-2.09675 -2.751685,-0.0296 -2.751685,-0.0296 -0.04642,-2.29305 -0.04642,-2.29309 3.230005,0 3.229978,0 0.277077,-1.95953 c 0.152388,-1.07773 0.27697,-2.05332 0.276862,-2.16798 -1.59e-4,-0.16326 -1.428982,-0.20847 -6.58758,-0.20847 l -6.587368,0 0,10.50643 0,10.50644 3.085223,0 3.085224,0 0,-3.91907 z m 13.174735,0.26771 c 0,-3.16095 0.04403,-3.79369 0.328121,-4.71121 0.577981,-1.86688 1.825893,-2.72761 3.424313,-2.36182 l 0.744161,0.17029 0.09617,-0.51819 c 0.05292,-0.28496 0.267203,-1.58636 0.476212,-2.89197 0.436162,-2.72425 0.519571,-2.54296 -1.181176,-2.56689 -0.695599,-0.01 -1.198255,0.0885 -1.661765,0.32497 -0.806867,0.41163 -1.788001,1.4662 -2.157482,2.31896 -0.310828,0.71747 -0.311977,0.71565 -0.572457,-0.91353 l -0.19329,-1.20905 -2.569869,0 -2.56984,0 0,8.0049 0,8.0049 2.918455,0 2.918452,0 z m 29.017774,-1.79056 0,-5.44194 0.728517,-0.72851 c 0.831344,-0.83134 1.433581,-0.94804 1.846943,-0.35787 0.222886,0.3182 0.259609,1.19108 0.259609,6.17045 l 0,5.79979 3.010564,0 3.010564,0 -0.05042,-6.71243 c -0.04954,-6.59799 -0.05693,-6.72666 -0.433794,-7.54422 -0.720646,-1.56349 -1.747471,-2.25287 -3.548191,-2.38215 -1.686456,-0.12106 -3.117172,0.35982 -4.454374,1.49721 -0.301287,0.25626 -0.613638,0.46593 -0.694104,0.46593 -0.0805,0 -0.197028,-0.30018 -0.259012,-0.66707 l -0.112702,-0.66707 -2.653641,0 -2.653644,0 0,8.0049 0,8.0049 3.001838,0 3.00184,0 z m 45.361119,0 0,-5.44194 0.72852,-0.72851 c 0.83133,-0.83134 1.43357,-0.94804 1.84694,-0.35787 0.22289,0.3182 0.25961,1.19108 0.25961,6.17045 l 0,5.79979 3.01056,0 3.01055,0 -0.0504,-6.71243 c -0.0496,-6.59799 -0.0569,-6.72666 -0.4338,-7.54422 -0.72065,-1.56349 -1.74746,-2.25287 -3.54818,-2.38215 -1.68645,-0.12106 -3.11718,0.35982 -4.45437,1.49721 -0.3013,0.25626 -0.61366,0.46593 -0.69411,0.46593 -0.0805,0 -0.19703,-0.30018 -0.25902,-0.66707 l -0.11269,-0.66707 -2.65364,0 -2.65365,0 0,8.0049 0,8.0049 3.00184,0 3.00183,0 z m 42.02573,1.18932 0,-4.25262 2.41816,0 2.41814,0 0,4.25262 0,4.2526 3.08522,0 3.08522,0 0,-10.50643 0,-10.50644 -3.08215,0 -3.08215,0 -0.0448,3.87737 -0.0448,3.87738 -2.37644,0.0462 -2.37646,0.0462 0,-3.92362 0,-3.92366 -3.08522,0 -3.08523,0 0,10.50643 0,10.50644 3.08523,0 3.08522,0 0,-4.2526 z m 49.03004,-1.1017 0,-5.35428 0.49731,-0.6279 c 0.99659,-1.25829 2.19217,-1.28826 2.39511,-0.06 0.0581,0.35198 0.10655,3.0602 0.10759,6.01826 l 0.002,5.3783 2.91844,0 2.91846,0 -0.002,-6.54568 c 0,-3.76893 -0.0705,-6.79573 -0.16469,-7.13511 -0.30286,-1.09024 -1.07137,-2.08497 -1.94176,-2.51344 -0.66275,-0.32624 -1.07031,-0.39926 -2.22861,-0.39926 -1.71982,0 -2.67333,0.32667 -3.92191,1.34367 l -0.88073,0.71735 -0.18602,-0.73868 -0.18598,-0.73866 -2.58252,0 -2.58251,0 0,8.00491 0,8.0049 2.91846,0 2.91847,0 0,-5.3543 z m 62.48358,-8.65429 c 0.19921,-3.16442 0.36806,-6.03494 0.37523,-6.3789 l 0.0131,-0.62538 -3.08523,0 -3.08524,0 0.003,0.70876 c 0.003,0.38983 0.15031,3.07272 0.33169,5.96198 0.18138,2.88928 0.33061,5.46167 0.33167,5.71644 l 0.003,0.46315 2.37645,-0.0462 2.37645,-0.0462 0.3622,-5.75351 z M 142.96774,98.417078 c 18.81018,-0.393556 40.41973,-1.176816 53.11587,-1.925252 5.64976,-0.333052 7.73686,-0.507932 12.00735,-1.006105 25.30328,-2.95172 46.5941,-9.254192 63.03877,-18.660639 3.07878,-1.761095 8.50674,-5.405639 10.89698,-7.316666 6.32897,-5.060102 11.01709,-10.217476 14.5776,-16.036721 2.34331,-3.829884 2.8952,-5.608901 2.89714,-9.339053 0,-1.375837 -0.0787,-2.914282 -0.17651,-3.41876 -0.55228,-2.848695 -3.67382,-6.669552 -7.51049,-9.193079 -6.8505,-4.505852 -18.43081,-7.656387 -35.11039,-9.552144 -7.42467,-0.843877 -15.26649,-1.546645 -34.60451,-3.101206 C 182.01731,15.645285 161.40394,12.755586 118.61949,4.3610306 103.137,1.3232767 96.38318,0.70198065 88.750338,1.6133299 83.302646,2.2637728 78.867343,3.6501507 73.508531,6.3775811 c -4.218423,2.1470217 -7.19244,4.1322569 -9.74048,6.5020269 -0.650586,0.605064 -1.48306,1.237496 -1.849952,1.405402 -0.94151,0.430868 -5.151367,4.690127 -6.249881,6.323209 -2.483601,3.69217 -5.50732,12.103339 -5.50732,15.319861 0,1.208447 -0.955678,2.372368 -2.623552,3.195254 -1.712302,0.844802 -7.726922,1.358707 -14.053328,1.200782 C 26.132715,40.140597 22.205164,39.399513 15.639754,36.957118 13.759429,36.257624 11.358225,35.387357 10.303741,35.023208 9.2492278,34.659045 8.138014,34.214507 7.8343613,34.035347 7.0905457,33.596482 6.5357792,33.625088 5.4676318,34.157368 c -1.0311112,0.513807 -3.0949089,2.40406 -3.8199927,3.498746 -0.2710727,0.40924 -0.73322249,1.395985 -1.02702897,2.192767 -0.42538126,1.153667 -0.53398107,1.703408 -0.53331359,2.699458 0.0026573,2.26271 1.15161206,4.98049 2.84630306,6.725914 1.4827216,1.52715 2.9920994,1.93322 4.7846373,1.287225 2.2341149,-0.805115 4.2137811,-0.620167 9.0768401,0.848004 11.29601,3.410292 18.751537,5.023325 29.322518,6.344063 2.350026,0.293612 3.061795,0.438252 3.120767,0.634174 0.04208,0.139597 0.382151,1.792254 0.755795,3.67257 1.189847,5.987756 2.127382,9.104936 3.665282,12.186941 0.80236,1.607925 2.207166,3.689263 2.839713,4.207278 0.245831,0.201323 0.907651,1.046249 1.470689,1.877604 4.729181,6.982844 11.623804,12.019761 20.374985,14.885117 6.102253,1.998027 11.930613,2.765755 24.181484,3.185227 5.61691,0.192326 31.50064,0.201688 40.44143,0.01457 z m -10.0895,-105.285592 3.58552,-0.3651483 0.0442,-4.7162297 0.0443,-4.716222 0.62278,0.498464 c 2.05019,1.640971 5.0294,1.871521 7.65339,0.592275 2.46874,-1.203537 4.24039,-4.004214 4.90247,-7.749966 0.30274,-1.712673 0.21574,-5.486932 -0.1691,-7.337825 -0.34218,-1.645568 -1.31575,-3.854994 -2.06955,-4.696647 -1.34396,-1.500571 -3.24884,-2.3105 -5.41772,-2.303569 -2.21067,0.0072 -3.67961,0.541432 -5.30455,1.92966 l -0.86848,0.741948 -0.10659,-0.795838 c -0.0586,-0.437717 -0.1289,-0.870897 -0.15613,-0.962617 -0.0316,-0.10634 -1.3262,-0.149327 -3.5731,-0.118641 l -3.52356,0.04812 0,15.169522 0,15.1695232 0.37523,-0.010847 c 0.20639,-0.00623 1.98874,-0.1751569 3.96079,-0.3759818 z m 5.26883,-13.628641 c -0.26656,-0.07979 -0.7356,-0.388191 -1.04231,-0.685449 l -0.55762,-0.540473 0,-4.187491 0,-4.187489 0.42368,-0.574245 c 1.26383,-1.713066 3.42495,-1.774749 4.22171,-0.12049 0.73238,1.52054 0.8735,5.897058 0.25714,7.974224 -0.35756,1.204997 -0.80456,1.800597 -1.63404,2.1773 -0.7516,0.341337 -0.95152,0.358602 -1.66856,0.144113 z m 19.1211,13.5803713 3.1269,-0.2981555 0,-4.7198248 c 0,-2.5959 0.0419,-4.719823 0.0932,-4.719823 0.0513,0 0.3702,0.221718 0.70876,0.492701 1.99211,1.594391 4.94047,1.863533 7.48085,0.682899 2.12508,-0.987629 4.01138,-3.625652 4.83543,-6.762355 0.47367,-1.802927 0.42301,-7.153956 -0.0851,-9.005517 -0.57725,-2.102967 -1.22558,-3.316144 -2.39861,-4.488214 -1.35803,-1.356938 -2.4169,-1.788181 -4.64954,-1.893622 -2.41527,-0.114071 -4.09473,0.468607 -5.75097,1.995267 l -0.70439,0.649286 -0.0983,-0.507814 c -0.0541,-0.279299 -0.13764,-0.714188 -0.18575,-0.966432 l -0.0874,-0.458609 -3.49806,0 -3.49806,0 0,15.240882 0,15.2408799 0.79217,-0.091694 c 0.43567,-0.050432 2.19925,-0.2258722 3.91906,-0.3898572 z m 4.66619,-13.6567463 c -0.29993,-0.130338 -0.76896,-0.481834 -1.0423,-0.781101 l -0.49699,-0.544119 0,-4.023646 0,-4.023649 0.49809,-0.687566 c 0.60303,-0.832475 1.58229,-1.363706 2.5138,-1.363706 0.55856,0 0.79537,0.104988 1.24019,0.549822 0.78382,0.783812 0.95193,1.519508 1.03988,4.551239 0.11287,3.891663 -0.39122,5.589433 -1.85727,6.255244 -0.81463,0.36997 -1.17017,0.382627 -1.8954,0.06751 z m -41.73056,5.40008 c 1.41844,-0.352073 3.96965,-1.556169 4.8249,-2.277226 l 0.57231,-0.4825 -1.46839,-1.987314 c -0.8076,-1.093024 -1.52079,-2.045217 -1.58483,-2.115981 -0.064,-0.0708 -0.86156,0.252858 -1.77223,0.719172 -1.38141,0.707365 -1.85062,0.863486 -2.83185,0.942246 -2.55257,0.204881 -4.17785,-0.851873 -4.5106,-2.932781 l -0.10947,-0.68458 6.43437,0 6.43436,0 0.11411,-0.6084 c 0.17438,-0.929441 -0.0442,-4.520351 -0.34357,-5.645432 -0.76431,-2.872096 -2.45655,-5.081645 -4.78411,-6.246625 -1.87922,-0.940576 -3.38316,-1.23159 -5.86625,-1.135105 -2.26219,0.08789 -3.77674,0.522527 -5.36503,1.539548 -1.2164,0.778895 -2.64572,2.411273 -3.32605,3.798549 -0.98313,2.004774 -1.30682,3.527868 -1.30267,6.12947 0.005,2.548886 0.33214,4.143897 1.22957,5.978612 0.63022,1.288434 2.3686,3.175963 3.54303,3.846998 2.72136,1.554933 6.6903,2.01074 10.1124,1.161349 z m -6.8969,-14.113869 c 0.27917,-2.189724 1.23286,-3.377653 2.71064,-3.376452 1.53233,8.91e-4 2.33552,0.983857 2.48243,3.037052 l 0.081,1.131545 -2.68752,0 -2.68752,0 0.10102,-0.792145 z m 77.02319,14.131107 c 1.64239,-0.379734 2.98975,-0.966681 4.45909,-1.942495 l 1.12375,-0.74628 -0.94435,-1.280955 c -1.8671,-2.532582 -2.27068,-3.042823 -2.36983,-2.996092 -0.0554,0.02606 -0.81361,0.405111 -1.68498,0.842232 -1.8179,0.911962 -3.00148,1.118507 -4.55792,0.795384 -1.49729,-0.31083 -2.40441,-1.278861 -2.70127,-2.88261 l -0.11577,-0.625386 6.52255,0 6.52255,0 0,-2.15333 c 0,-4.237365 -0.92854,-6.850372 -3.21501,-9.047415 -0.99236,-0.953562 -2.86389,-1.901459 -4.3945,-2.225736 -1.67133,-0.354102 -4.2386,-0.318294 -5.79937,0.08084 -4.81866,1.232401 -7.59426,5.270687 -7.60152,11.059558 -0.003,2.450363 0.32612,4.111647 1.17474,5.928342 2.0961,4.487246 7.5755,6.582645 13.58184,5.193901 z m -6.73663,-14.189572 c 0.38303,-2.423048 1.10812,-3.319356 2.68419,-3.317987 0.88647,8.02e-4 1.68857,0.46617 2.06999,1.201074 0.15721,0.302861 0.32035,1.091913 0.36358,1.758455 l 0.0784,1.209068 -2.66531,0 -2.66533,0 0.13447,-0.85061 z m -87.070834,8.688744 0,-5.169832 3.752304,0 3.75228,0 0,-2.918455 0,-2.918451 -3.75228,0 -3.752304,0 0,-3.00184 0,-3.001839 4.335994,0 c 4.01573,0 4.33649,-0.02151 4.34281,-0.29184 0.004,-0.160518 0.17997,-1.436303 0.3916,-2.83507 l 0.38474,-2.54323 -8.813408,0 -8.813406,0 0,13.925196 0,13.925196 4.085835,0 4.085835,0 z m 110.234194,0.184338 c 0,-5.525573 0.10384,-6.236462 1.15277,-7.889616 0.75814,-1.194849 1.54873,-1.530396 3.36217,-1.426997 l 1.44348,0.08227 0.62184,-3.742354 c 0.342,-2.058291 0.5868,-3.777372 0.54398,-3.820171 -0.16621,-0.166237 -1.90879,-0.360319 -2.62149,-0.291967 -1.66055,0.159237 -3.5343,1.634406 -4.41974,3.479572 l -0.48014,1.000613 -0.1364,-0.833845 c -0.0749,-0.458618 -0.21434,-1.321643 -0.30961,-1.917841 l -0.17323,-1.083996 -3.49427,0.04813 -3.49429,0.04812 0,10.666764 0,10.666763 4.00246,0 4.00246,0 0,-4.985496 z"
                   style="fill:#ffffff" />
              </g>
            </g>
          </g>
        </g>
      </g>
    </g>
  </g>
</svg>
