<?xml version="1.0" encoding="UTF-8" standalone="no"?>
<!-- Created with Inkscape (http://www.inkscape.org/) -->

<svg
   xmlns:dc="http://purl.org/dc/elements/1.1/"
   xmlns:cc="http://creativecommons.org/ns#"
   xmlns:rdf="http://www.w3.org/1999/02/22-rdf-syntax-ns#"
   xmlns:svg="http://www.w3.org/2000/svg"
   xmlns="http://www.w3.org/2000/svg"
   xmlns:sodipodi="http://sodipodi.sourceforge.net/DTD/sodipodi-0.dtd"
   xmlns:inkscape="http://www.inkscape.org/namespaces/inkscape"
   id="svg3553"
   version="1.1"
   inkscape:version="0.91 r13725"
   width="300"
   height="100"
   viewBox="0 0 300 100"
   sodipodi:docname="fepper-inverse-black-short.svg">
  <metadata
     id="metadata3559">
    <rdf:RDF>
      <cc:Work
         rdf:about="">
        <dc:format>image/svg+xml</dc:format>
        <dc:type
           rdf:resource="http://purl.org/dc/dcmitype/StillImage" />
        <dc:title></dc:title>
      </cc:Work>
    </rdf:RDF>
  </metadata>
  <defs
     id="defs3557" />
  <path
     style="fill:#ffffff"
     d="m 0,50 0,-50 150,0 150,0 0,50 0,50 -150,0 -150,0 z m 204.15584,45.858048 c 50.14497,-5.020531 80.63682,-22.737311 92.49707,-42.692934 2.08781,-3.512865 2.7905,-5.22642 2.7905,-9.16593 0,-4.052741 -0.60587,-5.337156 -2.56544,-7.851944 C 293.2413,31.480173 286.91419,28.059074 277.27424,25.547402 266.54609,22.752198 257.2973,21.608587 224.41558,19.011432 181.44077,15.617075 162.18255,12.898151 114.15584,3.4446829 93.60158,-0.6011713 82.48264,0.65250201 69.56105,8.4727946 62.11921,12.976686 56.805361,19.477119 53.377669,28.269944 51.877094,32.119267 50.649351,35.828659 50.649351,36.513036 50.649351,39.204012 45.710183,40.5 35.454545,40.5 26.822376,40.5 23.974302,40.063999 16.191268,37.551057 7.373324,34.703969 6.963594,34.659803 4.32861,36.272358 c -4.288383,2.6244 -4.858507,9.405601 -1.092943,12.999728 1.722993,1.644548 2.565608,1.817766 5.064936,1.041205 2.348306,-0.729638 4.49142,-0.43699 9.888192,1.350256 6.591385,2.182867 17.3312,4.490201 27.439363,5.895054 l 4.719066,0.655865 1.386163,6.90554 C 55.163698,82.209016 67.2333,94.445629 87.52306,97.2907 109.63242,100.39092 191.393,97.135868 204.15584,95.858048 Z"
     id="path3563"
     inkscape:connector-curvature="0"
     sodipodi:nodetypes="cccccccccssssssssssssssssscsss" />
  <g
     inkscape:groupmode="layer"
     id="layer2"
     inkscape:label="Layer 1"
     transform="translate(0.3,0)">
    <g
       transform="matrix(0.76307777,0,0,1,-48.205874,-904.23566)"
       id="layer1"
       inkscape:label="Layer 1"
       style="fill:#055015;fill-opacity:1">
      <path
         sodipodi:nodetypes="sccssssssssssscsccsss"
         inkscape:connector-curvature="0"
         id="path4221"
         d="m 134.66246,980.55574 c -4.25294,-4.66568 -5.95479,-12.70452 -5.95479,-12.70452 l -1.46531,-5.51102 -7.67622,-0.74924 c -14.56117,-1.42125 -26.622729,-4.07483 -34.754523,-5.99304 -5.904604,-1.39284 -9.293683,-1.73308 -11.50326,-0.93838 -4.508803,1.62165 -8.27719,-1.59852 -9.859837,-5.36252 -1.143315,-2.71915 -0.613709,-3.81968 0.638217,-6.24064 1.411506,-2.72956 7.004284,-6.02079 8.578166,-5.04808 0.415881,0.25703 1.545339,0.64833 2.509907,0.86954 0.964567,0.22122 5.803759,1.56816 10.753759,2.99318 12.438405,3.58083 28.553611,2.87564 36.847351,1.99542 3.2717,-0.34723 5.65265,-2.36881 5.65265,-3.10358 0,-3.80935 4.05106,-13.53676 8.96368,-17.64728 15.50964,-12.97731 1.35367,4.6329 6.16887,5.02623 0,0 -6.82919,0.55502 10.92851,-0.47523 8.17528,-0.4743 -23.45665,11.43673 -2.56341,13.95524 27.73337,2.47344 -30.42634,10.10625 1.34353,15.24914 18.23519,2.57917 -13.40254,5.05187 -8.66874,11.03757 12.22973,15.46402 9.00453,11.07917 0.47546,8.29176 -16.06774,-5.25113 -2.80993,12.6975 -10.41401,4.35545 z"
         style="fill:#055015;fill-opacity:1" />
    </g>
  </g>
</svg>
